<?xml version="1.0" standalone="no"?>
<!DOCTYPE svg PUBLIC "-//W3C//DTD SVG 1.1//EN" "http://www.w3.org/Graphics/SVG/1.1/DTD/svg11.dtd" >
<svg xmlns="http://www.w3.org/2000/svg">
<metadata>Generated by IcoMoon</metadata>
<defs>
<font id="icomoon" horiz-adv-x="1024">
<font-face units-per-em="1024" ascent="960" descent="-64" />
<missing-glyph horiz-adv-x="1024" />
<glyph unicode="&#x20;" horiz-adv-x="512" d="" />
<glyph unicode="&#xe900;" glyph-name="home" d="M1011.172 459.992c18.562 20.415 16.77 51.705-4.002 69.87l-457.639 400.437c-20.772 18.165-54.075 17.785-74.41-0.858l-459.195-420.928c-20.335-18.643-21.333-49.893-2.21-69.77l11.513-11.99c19.1-19.878 49.973-22.248 68.912-5.277l34.318 30.733v-449.932c0-27.605 22.368-49.953 49.953-49.953h178.995c27.585 0 49.953 22.348 49.953 49.953v314.771h228.311v-314.771c-0.397-27.585 19.34-49.933 46.925-49.933h189.69c27.585 0 49.953 22.348 49.953 49.953v443.577c0 0 9.48-8.305 21.173-18.582 11.673-10.258 36.19-2.033 54.753 18.402l13.008 14.3z" />
<glyph unicode="&#xe901;" glyph-name="check-decagram-outline" d="M981.333 448l-102.4 119.467 12.8 157.867-153.6 34.133-81.067 136.533-145.067-64-145.067 64-81.067-136.533-153.6-34.133 12.8-157.867-102.4-119.467 102.4-119.467-12.8-157.867 153.6-34.133 81.067-136.533 145.067 64 145.067-64 81.067 136.533 153.6 34.133-12.8 157.867 102.4 119.467zM797.867 238.933l-115.2-25.6-59.733-102.4-110.933 46.933-110.933-46.933-59.733 102.4-115.2 25.6 8.533 119.467-76.8 89.6 76.8 89.6-8.533 119.467 115.2 25.6 59.733 102.4 110.933-46.933 110.933 46.933 59.733-102.4 115.2-25.6-8.533-119.467 76.8-89.6-76.8-89.6 8.533-119.467zM708.267 635.733l59.733-59.733-341.333-341.333-170.667 170.667 59.733 59.733 110.933-110.933 281.6 281.6z" />
<glyph unicode="&#xe902;" glyph-name="check-decagram" d="M981.333 448l-104.107 118.613 14.507 157.013-154.027 34.987-80.64 135.68-145.067-62.293-145.067 62.293-80.64-135.68-154.027-34.56 14.507-157.013-104.107-119.040 104.107-118.613-14.507-157.44 154.027-34.987 80.64-135.68 145.067 62.72 145.067-62.293 80.64 135.68 154.027 34.987-14.507 157.013 104.107 118.613zM426.667 234.667l-170.667 170.667 60.16 60.16 110.507-110.080 281.173 281.173 60.16-60.587-341.333-341.333z" />
<glyph unicode="&#xe903;" glyph-name="zip-2" d="M960.922 104.653h-52.838v-52.838c0-58.368-47.309-105.677-105.677-105.677h-580.915c-58.368 0-105.677 47.309-105.677 105.677v52.838h-52.736c-29.184 0-52.838 23.654-52.838 52.838v316.928c0 29.184 23.654 52.838 52.838 52.838h52.838v316.826c0 58.368 47.309 105.677 105.677 105.677h475.341l211.251-211.251v-211.251h52.838c29.184 0 52.838-23.654 52.838-52.838v-316.928c-0.102-29.184-23.757-52.838-52.941-52.838zM168.653 51.917c0-29.184 23.654-52.838 52.838-52.838h581.018c29.184 0 52.838 23.654 52.838 52.838v52.838h-686.694v-52.838zM556.339 157.491v314.573h-79.053v-314.573h79.053zM131.379 472.064v-58.778h150.323v-1.843l-165.786-215.654v-38.298h252.006v58.778h-146.125v1.843l162.202 212.787v41.062h-252.621zM855.347 685.67h-105.677c-58.368 0-105.677 47.309-105.677 105.677v105.574h-422.502c-29.184 0-52.838-23.654-52.838-52.838v-316.928h686.592v158.515zM870.912 449.229c-23.245 16.794-57.856 25.19-106.394 25.19-48.026 0-82.125-2.765-106.394-6.554v-310.374h78.029v112.538c7.27-0.922 16.486-1.434 26.829-1.434 46.49 0 86.221 10.24 113.152 33.075 20.685 17.715 32.051 43.93 32.051 74.65-0.102 30.925-15.053 57.037-37.274 72.909zM762.47 323.174c-11.366 0-19.661 0.512-26.317 1.843v92.877c5.632 1.434 16.486 2.765 32.563 2.765 39.219 0 61.44-17.306 61.44-46.182 0-32.154-25.907-51.302-67.686-51.302z" />
<glyph unicode="&#xe904;" glyph-name="calendar" d="M246.517 960c-20.86 0-37.925-17.066-37.925-37.925v-37.925h-53.854c-74.904 0-135.775-60.872-135.775-135.775v-676.599c0-74.904 60.872-135.775 135.775-135.775h714.524c74.904 0 135.775 60.872 135.775 135.775v676.599c0 74.904-60.872 135.775-135.775 135.775h-53.854v37.925c0 20.86-17.069 37.925-37.928 37.925s-37.925-17.066-37.925-37.925v-37.925h-455.109v37.925c0 20.86-17.069 37.925-37.928 37.925zM739.554 808.296v-37.925c0-20.86 17.066-37.925 37.925-37.925s37.925 17.066 37.925 37.925v37.925h53.854c32.995 0 59.922-26.927 59.922-59.922v-676.599c0-32.995-26.927-59.922-59.922-59.922h-714.521c-32.995 0-59.922 26.927-59.922 59.922v676.599c0 32.995 26.927 59.922 59.922 59.922h53.854v-37.925c0-20.86 17.066-37.925 37.925-37.925s37.925 17.066 37.925 37.925v37.925zM259.982 470.186c-4.361-13.652-0.76-28.824 9.671-38.875l93.676-91.402-22.186-128.948c-2.464-14.222 3.414-28.634 15.169-37.168 11.758-8.534 27.117-9.671 40.012-2.844l115.673 61.062 115.863-60.872c5.501-2.844 11.568-4.361 17.636-4.361 7.774 0 15.739 2.464 22.376 7.204 11.758 8.534 17.446 22.946 15.169 37.168l-22.186 128.948 93.676 91.402c10.241 10.051 14.032 25.22 9.671 38.875-4.551 13.652-16.309 23.703-30.531 25.79l-129.518 18.773-57.838 117.379c-6.448 12.895-19.533 21.050-33.945 21.050s-27.687-8.154-33.945-21.050l-57.838-117.379-129.518-18.773c-14.779-2.087-26.728-12.138-31.088-25.98zM450.748 442.689c12.325 1.707 22.946 9.481 28.634 20.669l32.805 66.369 32.805-66.369c5.501-11.188 16.119-18.963 28.634-20.669l73.197-10.618-52.907-51.58c-8.911-8.724-13.085-21.24-10.998-33.565l12.515-72.817-65.422 34.321c-5.501 2.844-11.568 4.361-17.636 4.361s-12.135-1.517-17.636-4.361l-65.422-34.321 12.515 72.817c2.087 12.325-1.897 24.84-10.998 33.565l-52.907 51.58z" />
<glyph unicode="&#xe905;" glyph-name="trash1" horiz-adv-x="960" d="M896 789.334h-213.338v128c0.006 23.552-19.066 42.666-42.664 42.666h-341.332c-23.594 0-42.666-19.114-42.666-42.666v-128h-213.334c-23.594 0-42.666-19.114-42.666-42.666s19.070-42.668 42.666-42.668h42.666v-640c0-70.573 57.43-128 128-128h511.999c70.573 0 128 57.427 128 128v640h42.669c23.59 0 42.662 19.114 42.662 42.666s-19.066 42.668-42.662 42.668zM341.332 874.666h256v-85.334h-256v85.334zM768 64c0-23.507-19.117-42.669-42.669-42.669h-511.999c-23.552 0-42.666 19.162-42.666 42.669v640h597.334v-640zM341.166 618.687c-23.594 0-42.666-19.114-42.666-42.666v-384.003c0-23.552 19.072-42.662 42.666-42.662s42.666 19.11 42.666 42.662v384.003c0 23.552-19.072 42.666-42.666 42.666zM597.166 618.687c-23.594 0-42.666-19.114-42.666-42.666v-384.003c0-23.552 19.072-42.662 42.666-42.662s42.666 19.11 42.666 42.662v384.003c0 23.552-19.072 42.666-42.666 42.666z" />
<glyph unicode="&#xe906;" glyph-name="padlock" d="M597.77 214.086c21.722 22.236 34.23 52.324 34.23 83.914 0 66.168-53.832 120-120 120s-120-53.832-120-120c0-31.59 12.508-61.678 34.23-83.914l-33.15-120.104c-2.492-9.028-0.624-18.704 5.050-26.156s14.504-11.826 23.87-11.826h180c9.366 0 18.196 4.374 23.87 11.826s7.542 17.126 5.050 26.156l-33.15 120.104zM534.884 216.414l27.714-100.414h-101.198l27.714 100.414c3.368 12.202-1.286 25.206-11.632 32.5-15.954 11.25-25.482 29.6-25.482 49.086 0 33.084 26.916 60 60 60s60-26.916 60-60c0-19.486-9.528-37.836-25.484-49.086-10.346-7.296-15-20.298-11.632-32.5zM812 538v122c0 165.42-134.58 300-300 300s-300-134.58-300-300v-122c-49.626 0-90-40.374-90-90v-422c0-49.626 40.374-90 90-90h600c49.626 0 90 40.374 90 90v422c0 49.626-40.374 90-90 90zM272 660c0 132.336 107.664 240 240 240s240-107.664 240-240v-122h-60v122c0 99.252-80.748 180-180 180s-180-80.748-180-180v-122h-60v122zM632 660v-122h-240v122c0 66.168 53.832 120 120 120s120-53.832 120-120zM842 26c0-16.542-13.458-30-30-30h-600c-16.542 0-30 13.458-30 30v422c0 16.542 13.458 30 30 30h600c16.542 0 30-13.458 30-30v-422z" />
<glyph unicode="&#xe907;" glyph-name="exit" d="M588.8 550.4c14.131 0 25.6 11.469 25.6 25.6v204.8c0 42.342-34.458 76.8-76.8 76.8h-460.8c-42.342 0-76.8-34.458-76.8-76.8v-614.4c0-38.195 27.494-79.872 62.566-94.874l264.294-113.254c9.114-3.891 18.381-5.837 27.238-5.837 10.906 0 21.299 2.97 30.157 8.806 16.077 10.598 25.344 29.44 25.344 51.61v76.8h128c42.342 0 76.8 34.458 76.8 76.8v204.8c0 14.131-11.469 25.6-25.6 25.6s-25.6-11.469-25.6-25.6v-204.8c0-14.131-11.469-25.6-25.6-25.6h-128v486.4c0 38.195-27.494 79.872-62.566 94.874l-196.71 84.326h387.277c14.131 0 25.6-11.469 25.6-25.6v-204.8c0-14.131 11.469-25.6 25.6-25.6zM326.861 675.021c16.486-7.066 31.539-29.901 31.539-47.821v-614.4c0-5.325-1.434-8.294-2.304-8.858s-4.147-0.717-9.062 1.382l-264.294 113.254c-16.486 7.066-31.539 29.85-31.539 47.821v614.4c0 4.045 0.922 7.834 2.611 11.264l273.050-117.043zM939.725 491.725l-153.6 153.6c-9.984 9.984-26.214 9.984-36.198 0s-9.984-26.214 0-36.198l109.875-109.875h-322.202c-14.131 0-25.6-11.469-25.6-25.6s11.469-25.6 25.6-25.6h322.202l-109.875-109.875c-9.984-9.984-9.984-26.214 0-36.198 5.018-5.018 11.571-7.475 18.125-7.475s13.107 2.509 18.125 7.475l153.6 153.6c9.984 9.984 9.984 26.214 0 36.198z" />
<glyph unicode="&#xe908;" glyph-name="task-list" d="M812 840h-95.16c-12.384 34.918-45.73 60-84.84 60h-35.14c-12.382 34.922-45.746 60-84.86 60s-72.478-25.078-84.86-60h-35.14c-39.11 0-72.456-25.082-84.84-60h-95.16c-49.626 0-90-40.374-90-90v-724c0-49.626 40.374-90 90-90h600c49.626 0 90 40.374 90 90v724c0 49.626-40.374 90-90 90zM362 810c0 16.542 13.458 30 30 30h60c16.568 0 30 13.432 30 30 0 16.542 13.458 30 30 30s30-13.458 30-30c0-16.568 13.432-30 30-30h60c16.542 0 30-13.458 30-30v-30h-300v30zM842 26c0-16.542-13.458-30-30-30h-600c-16.542 0-30 13.458-30 30v724c0 16.542 13.458 30 30 30h90v-30c0-16.568 13.432-30 30-30h360c16.568 0 30 13.432 30 30v30h90c16.542 0 30-13.458 30-30v-724zM473.212 437.212c-11.714 11.716-30.71 11.716-42.426 0l-98.786-98.786-38.788 38.788c-11.714 11.716-30.71 11.716-42.426 0s-11.716-30.71 0-42.426l60.002-60.002c5.856-5.858 13.534-8.786 21.212-8.786s15.356 2.928 21.212 8.786l120 120c11.716 11.716 11.716 30.71 0 42.426zM473.212 647.212c-11.714 11.716-30.71 11.716-42.426 0l-98.786-98.786-38.788 38.788c-11.714 11.716-30.71 11.716-42.426 0s-11.716-30.71 0-42.426l60.002-60.002c5.856-5.858 13.534-8.786 21.212-8.786s15.356 2.928 21.212 8.786l120 120c11.716 11.716 11.716 30.71 0 42.426zM473.212 227.214c-11.714 11.716-30.71 11.716-42.426 0l-98.786-98.788-38.788 38.786c-11.714 11.716-30.71 11.716-42.426 0s-11.716-30.71 0-42.426l60.002-59.998c5.856-5.86 13.534-8.788 21.212-8.788s15.356 2.928 21.212 8.788l120 120c11.716 11.716 11.716 30.71 0 42.426zM752 596h-180c-16.568 0-30-13.432-30-30s13.432-30 30-30h180c16.568 0 30 13.432 30 30s-13.432 30-30 30zM752 176h-180c-16.568 0-30-13.432-30-30s13.432-30 30-30h180c16.568 0 30 13.432 30 30s-13.432 30-30 30zM752 386h-180c-16.568 0-30-13.432-30-30s13.432-30 30-30h180c16.568 0 30 13.432 30 30s-13.432 30-30 30z" />
<glyph unicode="&#xe909;" glyph-name="checked--" d="M512 960c-283.927 0-512-228.073-512-512s228.073-512 512-512 512 228.073 512 512-228.073 512-512 512zM807.564 608.582v0l-372.364-386.327c-4.655-4.655-9.309-6.982-16.291-6.982s-13.964 2.327-16.291 6.982l-181.527 195.491-4.655 4.655c-4.655 4.655-6.982 11.636-6.982 16.291s2.327 11.636 6.982 16.291l32.582 32.582c9.309 9.309 23.273 9.309 32.582 0l2.327-2.327 128-137.309c4.655-4.655 11.636-4.655 16.291 0l311.855 323.491h2.327c9.309 9.309 23.273 9.309 32.582 0l32.582-32.582c9.309-6.982 9.309-20.945 0-30.255z" />
<glyph unicode="&#xe90a;" glyph-name="info1" d="M634.029 300.039h-29.998v269.979c0 16.566-13.432 29.998-29.998 29.998h-179.986c-16.566 0-29.998-13.43-29.998-29.998v-119.99c0-16.566 13.43-29.998 29.998-29.998h29.998v-119.99h-29.998c-16.566 0-29.998-13.43-29.998-29.998v-119.99c0-16.566 13.43-29.998 29.998-29.998h239.982c16.566 0 29.998 13.43 29.998 29.998v119.988c0 16.566-13.432 29.998-29.998 29.998zM604.031 180.048h-179.986v59.996h29.998c16.566 0 29.998 13.43 29.998 29.998v179.986c0 16.566-13.432 29.998-29.998 29.998h-29.998v59.996h119.99v-269.979c0-16.566 13.432-29.998 29.998-29.998h29.998v-59.996zM514.037 839.996c-49.622 0-89.994-40.37-89.994-89.994s40.37-89.994 89.994-89.994 89.994 40.37 89.994 89.994-40.37 89.994-89.994 89.994zM514.037 720.006c-16.54 0-29.998 13.456-29.998 29.998 0 16.54 13.458 29.998 29.998 29.998s29.998-13.458 29.998-29.998c0-16.542-13.456-29.998-29.998-29.998zM514.037 959.988c-279.767 0-513.959-226.032-513.959-509.961 0-98.71 28.322-196.808 80.034-278.103l-77.888-194.72c-9.842-24.6 14.752-48.69 38.992-38.994l194.72 77.888c81.296-51.71 179.394-80.034 278.103-80.034 284.237 0 509.961 234.496 509.961 513.959-0.002 281.859-228.084 509.965-509.963 509.965zM514.037-4.338c-92.272 0-183.806 28.268-257.737 78.87-8.27 5.66-18.802 6.81-28.084 3.098l-144.294-57.718 57.718 144.292c3.716 9.292 2.554 19.826-3.098 28.084-50.602 73.932-78.87 165.466-78.87 257.737 0 248.112 204.048 450.365 454.365 450.365 248.112 0 450.365-202.654 450.365-450.765 0-250.316-202.252-453.963-450.365-453.963z" />
<glyph unicode="&#xe90b;" glyph-name="external-link" d="M884.708 853.625c-1.261-0.039-2.455-0.143-3.63-0.312l0.171 0.020h-294.583c-0.135 0.002-0.293 0.003-0.453 0.003-17.675 0-32.003-14.328-32.003-32.003s14.328-32.003 32.003-32.003c0.159 0 0.318 0.001 0.477 0.003h221.393l-329.375-329.375c-6.068-5.833-9.838-14.019-9.838-23.085 0-17.675 14.328-32.003 32.003-32.003 9.066 0 17.252 3.77 23.075 9.828l0.010 0.011 329.375 329.375v-221.417c-0.002-0.135-0.003-0.293-0.003-0.453 0-17.675 14.328-32.003 32.003-32.003s32.003 14.328 32.003 32.003c0 0.159-0.001 0.318-0.003 0.477v-0.024 294.625c0.188 1.305 0.296 2.811 0.296 4.343 0 17.675-14.328 32.003-32.003 32.003-0.323 0-0.644-0.005-0.965-0.014l0.047 0.001zM266.667 789.333c-87.989 0-160-72.011-160-160v-426.667c0-87.989 72.011-160 160-160h426.667c87.989 0 160 72.011 160 160v213.333c0.002 0.135 0.003 0.293 0.003 0.453 0 17.675-14.328 32.003-32.003 32.003s-32.003-14.328-32.003-32.003c0-0.159 0.001-0.318 0.003-0.477v0.024-213.333c0-53.408-42.592-96-96-96h-426.667c-53.408 0-96 42.592-96 96v426.667c0 53.408 42.592 96 96 96h213.333c0.135-0.002 0.293-0.003 0.453-0.003 17.675 0 32.003 14.328 32.003 32.003s-14.328 32.003-32.003 32.003c-0.159 0-0.318-0.001-0.477-0.003h-213.309z" />
<glyph unicode="&#xe90c;" glyph-name="trash" d="M793.6 857.6h-179.2v25.6c0 42.342-34.458 76.8-76.8 76.8h-102.4c-42.342 0-76.8-34.458-76.8-76.8v-25.6h-179.2c-42.342 0-76.8-34.458-76.8-76.8v-51.2c0-33.382 21.402-61.85 51.2-72.397v-644.403c0-42.342 34.458-76.8 76.8-76.8h512c42.342 0 76.8 34.458 76.8 76.8v644.403c29.798 10.547 51.2 39.014 51.2 72.397v51.2c0 42.342-34.458 76.8-76.8 76.8zM409.6 883.2c0 14.131 11.469 25.6 25.6 25.6h102.4c14.131 0 25.6-11.469 25.6-25.6v-25.6h-153.6v25.6zM742.4-12.8h-512c-14.131 0-25.6 11.469-25.6 25.6v640h563.2v-640c0-14.131-11.469-25.6-25.6-25.6zM819.2 729.6c0-14.131-11.469-25.6-25.6-25.6h-614.4c-14.131 0-25.6 11.469-25.6 25.6v51.2c0 14.131 11.469 25.6 25.6 25.6h614.4c14.131 0 25.6-11.469 25.6-25.6v-51.2zM640 601.6c-14.131 0-25.6-11.469-25.6-25.6v-512c0-14.131 11.469-25.6 25.6-25.6s25.6 11.469 25.6 25.6v512c0 14.131-11.469 25.6-25.6 25.6zM486.4 601.6c-14.131 0-25.6-11.469-25.6-25.6v-512c0-14.131 11.469-25.6 25.6-25.6s25.6 11.469 25.6 25.6v512c0 14.131-11.469 25.6-25.6 25.6zM332.8 601.6c-14.131 0-25.6-11.469-25.6-25.6v-512c0-14.131 11.469-25.6 25.6-25.6s25.6 11.469 25.6 25.6v512c0 14.131-11.469 25.6-25.6 25.6z" />
<glyph unicode="&#xe90d;" glyph-name="cross-circle" d="M733.798 236.749l-208.896 185.651 208.896 185.651c10.547 9.37 11.52 25.549 2.15 36.147s-25.549 11.52-36.147 2.15l-213.402-189.696-213.402 189.696c-10.547 9.37-26.726 8.448-36.147-2.15s-8.448-26.726 2.15-36.147l208.896-185.651-208.896-185.651c-10.547-9.37-11.52-25.549-2.15-36.147 5.069-5.683 12.083-8.602 19.149-8.602 6.042 0 12.134 2.15 16.998 6.451l213.402 189.696 213.402-189.696c4.864-4.352 10.957-6.451 16.998-6.451 7.066 0 14.080 2.918 19.149 8.602 9.37 10.547 8.448 26.726-2.15 36.147zM486.4-64c-129.946 0-252.058 50.586-343.962 142.438s-142.438 214.016-142.438 343.91c0 129.946 50.586 252.058 142.438 343.962s214.016 142.49 343.962 142.49c129.946 0 252.058-50.586 343.962-142.49s142.438-214.016 142.438-343.962-50.586-252.058-142.438-343.91c-91.853-91.853-214.016-142.438-343.962-142.438zM486.4 857.6c-239.974 0-435.2-195.226-435.2-435.2s195.226-435.2 435.2-435.2 435.2 195.226 435.2 435.2-195.226 435.2-435.2 435.2z" />
<glyph unicode="&#xe90e;" glyph-name="stripe" horiz-adv-x="2487" d="M198.945 558.74c0 26.66 21.875 36.913 58.104 36.913 51.952 0 117.576-15.722 169.528-43.749v160.641c-56.737 22.558-112.791 31.445-169.528 31.445-138.766 0-231.049-72.459-231.049-193.453 0-188.67 259.76-158.588 259.76-239.938 0-31.442-27.343-41.696-65.624-41.696-56.737 0-129.196 23.24-186.617 54.686v-162.694c63.573-27.341 127.829-38.961 186.617-38.961 142.184 0 239.936 70.407 239.936 192.77-0.684 203.704-261.127 167.474-261.127 244.035zM661.046 880.705l-166.795-35.546-0.683-547.545c0-101.171 75.878-175.679 177.045-175.679 56.057 0 97.070 10.255 119.628 22.557v138.767c-21.875-8.884-129.882-40.331-129.882 60.84v242.668h129.882v145.603h-129.882l0.688 148.336zM1002.832 681.784l-10.937 50.585h-147.651v-598.132h170.896v405.363c40.331 52.636 108.685 43.066 129.877 35.546v157.223c-21.875 8.203-101.854 23.241-142.185-50.585zM1186.714 732.369h171.579v-598.132h-171.579v598.132zM1186.714 784.321l171.579 36.913v138.766l-171.579-36.23v-139.45zM1715.122 743.989c-66.989 0-110.056-31.445-133.983-53.319l-8.884 42.381h-150.387v-797.052l170.891 36.23 0.688 193.453c24.605-17.774 60.835-43.067 120.993-43.067 122.358 0 233.784 98.436 233.784 315.129-0.688 198.239-113.474 306.244-233.101 306.244zM1674.108 273.003c-40.331 0-64.258 14.356-80.662 32.129l-0.688 253.607c17.774 19.824 42.384 33.495 81.349 33.495 62.206 0 105.267-69.725 105.267-159.273 0-91.599-42.379-159.959-105.267-159.959zM2486.882 430.909c0 174.998-84.763 313.080-246.774 313.080-162.689 0-261.125-138.082-261.125-311.71 0-205.761 116.209-309.662 282.999-309.662 81.349 0 142.872 18.456 189.352 44.432v136.719c-46.48-23.245-99.801-37.6-167.478-37.6-66.306 0-125.094 23.245-132.613 103.907h334.273c0 8.884 1.365 44.432 1.365 60.835zM2149.196 495.851c0 77.244 47.167 109.372 90.229 109.372 41.701 0 86.133-32.128 86.133-109.372h-176.362z" />
<glyph unicode="&#xe90f;" horiz-adv-x="3200" d="M1308 960l-160.602-999.405h256.704l160.499 999.405c0 0-256.602 0-256.602 0zM2082.304 552.899c-89.702 44.299-144.698 74.196-144.698 119.505 1.094 41.195 46.502 83.399 147.898 83.399 83.405 2.095 144.698-17.505 191.206-37.005l23.296-10.397 34.899 209.101c-50.707 19.599-131.098 41.195-230.4 41.195-253.498 0-432-131.8-433.107-320.303-2.099-139.104 127.795-216.296 225.005-262.602 99.302-47.501 133.101-78.3 133.101-120.501-1.094-64.8-80.294-94.694-154.195-94.694-102.394 0-157.395 15.398-240.896 51.501l-33.805 15.398-35.898-217.306c60.301-26.803 171.2-50.394 286.304-51.603 269.402 0 444.704 129.805 446.906 330.701 0.877 110.206-67.616 194.614-215.616 263.612zM2993.005 956.907h-198.605c-61.203 0-107.706-17.603-134.202-80.405l-381.306-915.907h269.402l74.195 198.298h301.402l38.502-199.098h237.606l-206.995 997.112zM2697.203 359.010c5.197-0.504 103.405 323.703 103.405 323.703l78.195-323.703c0 0-130.899 0-181.6 0zM932.902 960l-251.501-679.002-27.398 133.903c-46.502 154.503-192.296 322.397-355.003 405.796l230.301-859.105h271.608l403.603 998.297-271.61 0.11z" />
<glyph unicode="&#xe910;" horiz-adv-x="3200" d="M569.403 831.101c-19.599 76.204-82.105 127.599-166.995 128.696h-398.306l-4.102-18.492c310.706-76.599 571.498-312.296 656.102-533.998l-86.7 423.794z" />
<glyph unicode="&#xe911;" horiz-adv-x="1600" d="M999.61 460.048c0-276.176-223.728-499.955-499.805-499.955s-499.805 223.827-499.805 499.955c0 276.126 223.782 499.952 499.805 499.952s499.805-223.826 499.805-499.952z" />
<glyph unicode="&#xe912;" horiz-adv-x="1600" d="M1100.038 960c-112.090 0-215.283-37.347-298.675-99.693l0.403-0.049c16.4-15.847 34.496-27 48.445-45.244l-103.994-1.65c-16.298-16.45-31.146-34.348-45.146-52.948h183.382c13.949-16.747 26.848-31.299 38.547-49.795h-255.174c-9.347-16.099-17.997-32.648-25.546-49.844h309.773c8.099-17.147 15.347-30.099 21.501-48.249h-349.622c-5.549-17.251-10.298-34.896-13.901-52.893h378.166c3.702-17.299 6.547-33.293 8.499-49.597h-394.166c-1.651-16.448-2.499-33.146-2.499-49.997h399.514c0-17.699-1.251-34.096-3.050-49.997h-393.965c1.699-16.95 4.202-33.597 7.501-49.997h377.565c-3.898-16.198-8.4-32.496-14.048-49.395h-350.768c5.299-17.098 11.75-33.696 18.797-49.894h310.477c-8.598-18.198-18.349-32.746-29.094-49.795h-256.026c10.099-17.498 21.248-34.192 33.344-50.195l184.182-2.746c-15.699-18.848-35.846-30.198-54.198-46.698 0.998-0.8-29.347 0.099-89.094 1.050 90.893-93.795 217.933-152.285 358.864-152.285 276.128 0 499.955 223.83 499.955 499.952s-223.779 499.958-499.949 499.958z" />
<glyph unicode="&#xe913;" glyph-name="plus-circle" d="M830.362 766.362c-91.853 91.853-214.016 142.438-343.962 142.438s-252.058-50.586-343.962-142.438-142.438-214.016-142.438-343.91 50.586-252.058 142.438-343.962 214.016-142.438 343.962-142.438 252.058 50.586 343.962 142.438 142.438 214.016 142.438 343.962-50.586 252.058-142.438 343.91zM486.4-12.8c-239.974 0-435.2 195.226-435.2 435.2s195.226 435.2 435.2 435.2c239.974 0 435.2-195.226 435.2-435.2s-195.226-435.2-435.2-435.2zM793.6 448h-281.6v281.6c0 14.131-11.469 25.6-25.6 25.6s-25.6-11.469-25.6-25.6v-281.6h-281.6c-14.131 0-25.6-11.469-25.6-25.6s11.469-25.6 25.6-25.6h281.6v-281.6c0-14.131 11.469-25.6 25.6-25.6s25.6 11.469 25.6 25.6v281.6h281.6c14.131 0 25.6 11.469 25.6 25.6s-11.469 25.6-25.6 25.6z" />
<glyph unicode="&#xe914;" glyph-name="minus-circle" d="M830.362 766.362c-91.853 91.853-214.016 142.438-343.962 142.438s-252.058-50.586-343.962-142.438-142.438-214.016-142.438-343.91 50.586-252.058 142.438-343.962 214.016-142.438 343.962-142.438 252.058 50.586 343.962 142.438 142.438 214.016 142.438 343.962-50.586 252.058-142.438 343.91zM486.4-12.8c-239.974 0-435.2 195.226-435.2 435.2s195.226 435.2 435.2 435.2c239.974 0 435.2-195.226 435.2-435.2s-195.226-435.2-435.2-435.2zM793.6 396.8h-614.4c-14.131 0-25.6 11.469-25.6 25.6s11.469 25.6 25.6 25.6h614.4c14.131 0 25.6-11.469 25.6-25.6s-11.469-25.6-25.6-25.6z" />
<glyph unicode="&#xe915;" glyph-name="star1" d="M793.6-12.8c-4.198 0-8.397 1.024-12.237 3.123l-269.363 146.893-269.363-146.893c-8.602-4.71-19.098-4.045-27.085 1.638s-12.032 15.411-10.394 25.088l49.050 294.195-195.482 195.482c-6.758 6.758-9.216 16.794-6.298 25.907s10.701 15.872 20.173 17.459l294.349 49.050 122.163 244.326c4.352 8.653 13.21 14.131 22.886 14.131s18.586-5.478 22.886-14.131l122.163-244.326 294.349-49.050c9.472-1.587 17.254-8.294 20.173-17.459s0.512-19.149-6.298-25.907l-195.482-195.482 49.050-294.195c1.587-9.677-2.458-19.405-10.394-25.088-4.403-3.123-9.626-4.762-14.848-4.762zM512 192c4.198 0 8.448-1.024 12.237-3.123l235.469-128.41-42.547 255.334c-1.382 8.141 1.28 16.486 7.168 22.323l169.626 169.626-258.15 43.008c-8.090 1.331-15.002 6.502-18.688 13.824l-105.114 210.227-105.114-210.227c-3.686-7.322-10.598-12.442-18.688-13.824l-258.15-43.008 169.626-169.626c5.837-5.837 8.499-14.131 7.168-22.323l-42.547-255.334 235.469 128.41c3.84 2.099 8.038 3.123 12.237 3.123z" />
<glyph unicode="&#xe916;" glyph-name="star-empty" d="M281.549 533.35c-12.288 0-23.142 8.858-25.242 21.402-2.304 13.926 7.117 27.136 21.043 29.44l89.549 14.899 19.763 39.526c6.298 12.646 21.709 17.766 34.355 11.469s17.766-21.709 11.469-34.355l-25.6-51.2c-3.686-7.322-10.598-12.442-18.688-13.824l-102.4-17.050c-1.434-0.256-2.867-0.358-4.25-0.358zM128 448c-6.554 0-13.107 2.509-18.125 7.475l-51.2 51.2c-6.758 6.758-9.216 16.794-6.298 25.907s10.701 15.872 20.173 17.459l102.4 17.050c13.978 2.304 27.136-7.117 29.44-21.043s-7.117-27.136-21.043-29.44l-53.35-8.909 16.026-16.026c9.984-9.984 9.984-26.214 0-36.198-5.018-5.018-11.571-7.475-18.125-7.475zM759.45 192c-12.288 0-23.142 8.858-25.242 21.402l-17.050 102.4c-1.382 8.141 1.28 16.486 7.168 22.323l51.2 51.2c9.984 9.984 26.214 9.984 36.198 0s9.984-26.214 0-36.198l-41.882-41.882 14.899-89.395c2.304-13.926-7.117-27.136-21.043-29.44-1.434-0.256-2.816-0.358-4.25-0.358zM793.6-12.8c-4.198 0-8.397 1.024-12.237 3.123l-153.6 83.763c-12.39 6.758-16.998 22.323-10.24 34.714s22.323 16.998 34.714 10.24l107.469-58.624-8.448 50.534c-2.304 13.926 7.117 27.136 21.043 29.44s27.136-7.117 29.44-21.043l17.050-102.4c1.587-9.677-2.458-19.405-10.394-25.088-4.403-3.123-9.626-4.762-14.848-4.762zM273.101 243.2c-1.382 0-2.816 0.102-4.25 0.358-13.926 2.304-23.347 15.514-21.043 29.44l6.349 38.195-41.882 41.882c-9.984 9.984-9.984 26.214 0 36.198s26.214 9.984 36.198 0l51.2-51.2c5.837-5.837 8.499-14.131 7.168-22.323l-8.55-51.2c-2.099-12.544-12.954-21.402-25.242-21.402zM230.4-12.8c-5.222 0-10.445 1.587-14.848 4.762-7.987 5.683-12.032 15.411-10.394 25.088l25.6 153.6c2.304 13.926 15.514 23.347 29.44 21.043s23.347-15.514 21.043-29.44l-16.947-101.734 56.269 30.669c12.39 6.758 27.955 2.202 34.714-10.189s2.202-27.955-10.24-34.714l-102.4-55.859c-3.84-2.099-8.038-3.123-12.237-3.123zM435.2 98.918c-9.062 0-17.869 4.813-22.477 13.363-6.758 12.39-2.202 27.955 10.24 34.714l76.8 41.882c7.629 4.147 16.896 4.147 24.525 0l25.6-13.978c12.39-6.758 16.998-22.323 10.24-34.714s-22.323-16.998-34.714-10.24l-13.363 7.27-64.563-35.226c-3.891-2.099-8.090-3.123-12.237-3.123zM896 448c-6.554 0-13.107 2.509-18.125 7.475-9.984 9.984-9.984 26.214 0 36.198l16.026 16.026-104.55 17.408c-13.926 2.304-23.347 15.514-21.043 29.44s15.514 23.347 29.44 21.043l153.6-25.6c9.472-1.587 17.254-8.294 20.173-17.459s0.512-19.149-6.298-25.907l-51.2-51.2c-5.018-5.018-11.571-7.526-18.125-7.526zM691.251 541.85c-1.382 0-2.816 0.102-4.25 0.358l-51.2 8.55c-8.090 1.331-15.002 6.502-18.688 13.824l-51.2 102.4c-6.298 12.646-1.178 28.006 11.469 34.355s28.006 1.178 34.355-11.469l45.363-90.726 38.349-6.4c13.926-2.304 23.347-15.514 21.043-29.44-2.099-12.493-12.954-21.402-25.242-21.402zM460.8 704c-3.84 0-7.731 0.87-11.418 2.714-12.646 6.298-17.766 21.709-11.469 34.355l51.2 102.4c4.352 8.653 13.21 14.131 22.886 14.131 0 0 0 0 0 0 9.677 0 18.586-5.478 22.886-14.131l25.6-51.2c6.298-12.646 1.178-28.006-11.469-34.355s-28.006-1.178-34.355 11.469l-2.714 5.427-28.314-56.627c-4.506-8.96-13.517-14.182-22.938-14.182z" />
<glyph unicode="&#xe917;" glyph-name="download" d="M760.474 466.074c-9.984 9.984-26.214 9.984-36.198 0l-212.275-212.275v578.202c0 14.131-11.469 25.6-25.6 25.6s-25.6-11.469-25.6-25.6v-578.202l-212.275 212.275c-9.984 9.984-26.214 9.984-36.198 0s-9.984-26.214 0-36.198l256-256c5.018-5.018 11.571-7.475 18.125-7.475s13.107 2.509 18.125 7.526l256 256c9.984 9.984 9.984 26.214 0 36.198zM896-12.8h-819.2c-42.342 0-76.8 34.458-76.8 76.8v102.4c0 14.131 11.469 25.6 25.6 25.6s25.6-11.469 25.6-25.6v-102.4c0-14.131 11.469-25.6 25.6-25.6h819.2c14.131 0 25.6 11.469 25.6 25.6v102.4c0 14.131 11.469 25.6 25.6 25.6s25.6-11.469 25.6-25.6v-102.4c0-42.342-34.458-76.8-76.8-76.8z" />
<glyph unicode="&#xe918;" glyph-name="upload" d="M896-12.8h-819.2c-42.342 0-76.8 34.458-76.8 76.8v102.4c0 14.131 11.469 25.6 25.6 25.6s25.6-11.469 25.6-25.6v-102.4c0-14.131 11.469-25.6 25.6-25.6h819.2c14.131 0 25.6 11.469 25.6 25.6v102.4c0 14.131 11.469 25.6 25.6 25.6s25.6-11.469 25.6-25.6v-102.4c0-42.342-34.458-76.8-76.8-76.8zM760.525 517.325l-256 256c-9.984 9.984-26.214 9.984-36.198 0l-256-256c-9.984-9.984-9.984-26.214 0-36.198s26.214-9.984 36.198 0l212.275 212.275v-527.002c0-14.131 11.469-25.6 25.6-25.6s25.6 11.469 25.6 25.6v527.002l212.275-212.275c5.018-5.018 11.571-7.475 18.125-7.475s13.107 2.509 18.125 7.475c9.984 9.984 9.984 26.214 0 36.198z" />
<glyph unicode="&#xe919;" glyph-name="upload1" d="M760.064 693.056l-224 256c-6.080 6.912-14.848 10.944-24.064 10.944s-17.984-4.032-24.064-10.944l-224-256c-8.256-9.472-10.304-22.848-5.056-34.304 5.184-11.392 16.576-18.752 29.12-18.752h128v-416c0-17.664 14.336-32 32-32h128c17.664 0 32 14.336 32 32v416h128c12.544 0 23.936 7.296 29.12 18.752s3.264 24.896-5.056 34.304zM864 256v-192h-704v192h-128v-256c0-35.392 28.672-64 64-64h832c35.392 0 64 28.608 64 64v256h-128z" />
<glyph unicode="&#xe91a;" glyph-name="warning" d="M511.986 258.234c-28.628 0-52.625-23.997-52.625-52.625s23.997-52.625 52.625-52.625c27.575 0 52.625 23.997 51.362 51.362 1.263 30.101-22.523 53.888-51.362 53.888zM999.081 71.732c33.048 57.045 33.259 125.036 0.421 181.871l-329.642 570.873c-32.627 57.466-91.567 91.567-157.664 91.567s-125.036-34.311-157.664-91.357l-330.063-571.505c-32.838-57.466-32.627-125.878 0.631-182.924 32.838-56.414 91.567-90.304 157.243-90.304h658.441c65.886 0 125.036 34.311 158.295 91.778zM927.511 112.99c-18.313-31.575-50.73-50.309-86.936-50.309h-658.441c-35.785 0-67.991 18.313-85.884 49.257-18.103 31.364-18.313 68.833-0.21 100.408l330.063 571.294c17.892 31.364 49.888 49.888 86.094 49.888 35.995 0 68.202-18.734 86.094-50.099l329.852-571.294c17.682-30.733 17.471-67.781-0.631-99.145zM498.935 627.66c-25.049-7.157-40.626-29.891-40.626-57.466 1.263-16.629 2.315-33.469 3.578-50.099 3.578-63.36 7.157-125.457 10.735-188.818 1.263-21.471 17.892-37.048 39.363-37.048s38.311 16.629 39.363 38.311c0 13.051 0 25.049 1.263 38.311 2.315 40.626 4.841 81.253 7.157 121.879 1.263 26.312 3.578 52.625 4.841 78.937 0 9.472-1.263 17.892-4.841 26.312-10.735 23.576-35.785 35.574-60.834 29.68z" />
<glyph unicode="&#xe91b;" glyph-name="filter" d="M51.2 755.2h563.2c0-27.158 10.789-53.204 29.994-72.408 19.2-19.204 45.247-29.992 72.406-29.992h102.4c27.159 0 53.206 10.788 72.406 29.992 19.205 19.204 29.994 45.25 29.994 72.408h51.2c13.577 0 26.601 5.394 36.203 14.996s14.997 22.625 14.997 36.204c0 13.579-5.395 26.602-14.997 36.204s-22.626 14.996-36.203 14.996h-51.2c0 27.158-10.789 53.204-29.994 72.408-19.2 19.204-45.247 29.992-72.406 29.992h-102.4c-27.159 0-53.206-10.789-72.406-29.992-19.205-19.204-29.994-45.249-29.994-72.408h-563.2c-13.579 0-26.602-5.394-36.204-14.996s-14.996-22.625-14.996-36.204c0-13.579 5.394-26.602 14.996-36.204s22.625-14.996 36.204-14.996v0zM716.8 857.6h102.4v-102.4h-102.4v102.4zM972.8 499.2h-460.8c0 27.158-10.789 53.204-29.994 72.408-19.202 19.204-45.248 29.992-72.406 29.992h-102.4c-27.158 0-53.204-10.789-72.408-29.992s-29.992-45.249-29.992-72.408h-153.6c-13.579 0-26.602-5.395-36.204-14.997s-14.996-22.626-14.996-36.203c0-13.577 5.394-26.601 14.996-36.203s22.625-14.997 36.204-14.997h153.6c0-27.159 10.789-53.206 29.992-72.406 19.204-19.205 45.249-29.994 72.408-29.994h102.4c27.158 0 53.204 10.789 72.406 29.994 19.205 19.2 29.994 45.247 29.994 72.406h460.8c13.577 0 26.601 5.395 36.203 14.997s14.997 22.626 14.997 36.203c0 13.577-5.395 26.601-14.997 36.203s-22.626 14.997-36.203 14.997zM307.2 396.8v102.4h102.4v-102.4h-102.4zM972.8 140.8h-153.6c0 27.159-10.789 53.206-29.994 72.406-19.2 19.205-45.247 29.994-72.406 29.994h-102.4c-27.159 0-53.206-10.789-72.406-29.994-19.205-19.2-29.994-45.247-29.994-72.406h-460.8c-13.579 0-26.602-5.395-36.204-14.997s-14.996-22.626-14.996-36.203c0-13.577 5.394-26.601 14.996-36.203s22.625-14.997 36.204-14.997h460.8c0-27.159 10.789-53.206 29.994-72.406 19.2-19.205 45.247-29.994 72.406-29.994h102.4c27.159 0 53.206 10.789 72.406 29.994 19.205 19.2 29.994 45.247 29.994 72.406h153.6c13.577 0 26.601 5.395 36.203 14.997s14.997 22.626 14.997 36.203c0 13.577-5.395 26.601-14.997 36.203s-22.626 14.997-36.203 14.997zM614.4 38.4v102.4h102.4v-102.4h-102.4z" />
<glyph unicode="&#xe91c;" glyph-name="pdf" d="M298.166 435.312c0 27.574-19.147 44.031-52.936 44.031-13.783 0-23.122-1.329-28.019-2.662v-88.544c5.789-1.314 12.906-1.764 22.666-1.764 36.050 0 58.289 18.236 58.289 48.939zM507.305 478.455c-15.142 0-24.907-1.333-30.711-2.668v-196.179c5.793-1.355 15.137-1.355 23.592-1.355 61.382-0.429 101.422 33.364 101.422 104.991 0.45 62.304-36.039 95.211-94.303 95.211zM908.038 593.72h-24.589v118.641c0 0.74-0.117 1.485-0.216 2.235-0.039 4.711-1.537 9.338-4.763 13.004l-197.432 225.532c-0.059 0.058-0.117 0.078-0.158 0.141-1.177 1.314-2.549 2.408-3.999 3.354-0.429 0.288-0.863 0.53-1.313 0.779-1.257 0.686-2.59 1.255-3.962 1.666-0.372 0.104-0.706 0.257-1.078 0.353-1.491 0.353-3.040 0.574-4.609 0.574h-485.215c-22.157 0-40.157-18.020-40.157-40.159v-326.112h-24.583c-31.696 0-57.396-25.689-57.396-57.396v-298.471c0-31.685 25.7-57.391 57.396-57.391h24.585v-204.313c0-22.136 18-40.159 40.157-40.159h662.587c22.136 0 40.157 18.020 40.157 40.159v204.313h24.589c31.687 0 57.393 25.706 57.393 57.391v298.462c-0.002 31.705-25.708 57.396-57.394 57.396zM180.706 919.834h465.136v-205.456c0-11.093 9-20.078 20.078-20.078h177.372v-100.593h-662.587v326.127zM673.665 385.492c0-57.402-20.902-96.981-49.861-121.461-31.551-26.245-79.607-38.696-138.31-38.696-35.137 0-60.044 2.225-76.969 4.441v294.513c24.91 3.995 57.406 6.221 91.662 6.221 56.911 0 93.844-10.24 122.774-32.025 31.127-23.137 50.705-60.053 50.705-112.993zM150.030 228.442v295.848c20.898 3.54 50.274 6.221 91.647 6.221 41.813 0 71.626-8.009 91.637-24.035 19.134-15.116 32.005-40.034 32.005-69.397 0-29.372-9.76-54.282-27.569-71.176-23.131-21.804-57.381-31.597-97.43-31.597-8.883 0-16.918 0.452-23.118 1.344v-107.215l-67.172 0.007zM843.294-12.971h-662.589v193.442h662.587v-193.442zM901.479 472.677h-115.244v-68.51h107.667v-55.167h-107.667v-120.56h-68.030v299.845h183.275v-55.608z" />
<glyph unicode="&#xe91d;" glyph-name="user" d="M512 960c135.745-0.154 265.885-54.146 361.868-150.131 95.986-95.985 149.978-226.124 150.132-361.869 0-101.263-30.027-200.253-86.286-284.454-56.262-84.197-136.223-149.821-229.779-188.573s-196.502-48.893-295.82-29.136c-99.32 19.756-190.55 68.519-262.154 140.124s-120.368 162.833-140.123 262.151c-19.756 99.321-9.616 202.267 29.136 295.822s104.377 173.519 188.574 229.778 183.188 86.288 284.452 86.288zM512 17.067c108.698 0.13 213.122 41.271 292.588 114.838-81.722 93.28-184.477 144.196-292.564 144.196-108.148 0-210.988-51.005-292.737-144.364 16.563-15.329 34.374-29.399 53.3-42.045 70.867-47.353 154.183-72.625 239.414-72.625zM113.87 283.088c13.374-32.287 30.552-62.652 51.050-90.508 86.582 95.778 193.684 152.364 308.284 162.796-1.509 0.27-3.014 0.556-4.516 0.857-41.182 8.298-78.974 28.634-108.582 58.433-29.608 29.802-49.7 67.721-57.729 108.957-8.030 41.233-3.634 83.924 12.63 122.655 16.263 38.732 43.663 71.763 78.721 94.905s76.203 35.351 118.207 35.081c56.057-0.235 109.728-22.701 149.238-62.466 39.513-39.766 61.631-93.582 61.501-149.637 0-42.011-12.476-83.070-35.843-117.982-23.364-34.908-56.573-62.092-95.409-78.107-13.776-5.68-28.041-9.861-42.551-12.527 115.255-9.967 223.014-66.591 310.074-162.806 54.125 73.523 83.879 162.85 83.988 255.263 0 85.231-25.272 168.547-72.625 239.414-47.35 70.867-114.654 126.1-193.396 158.717s-165.39 41.15-248.982 24.522c-83.593-16.627-160.378-57.67-220.645-117.937s-101.309-137.053-117.937-220.645c-16.628-83.593-8.094-170.24 24.523-248.982zM438.777 454.554c21.722-14.237 47.186-21.699 73.158-21.432 34.567 0.215 67.632 14.135 91.948 38.697 24.317 24.566 37.895 57.774 37.758 92.341 0 25.972-7.721 51.357-22.18 72.936-14.455 21.577-35 38.37-59.023 48.248-24.020 9.878-50.435 12.394-75.892 7.229-25.453-5.165-48.8-17.778-67.072-36.237s-30.645-41.931-35.55-67.439c-4.905-25.504-2.12-51.893 8.004-75.814 10.121-23.921 27.126-44.291 48.848-58.528z" />
<glyph unicode="&#xe91e;" glyph-name="cart" d="M975.311 544.101h-195.27l-142.149 342.482c-7.020 16.91-26.423 24.925-43.329 17.912-16.91-7.020-24.929-26.419-17.909-43.329l131.595-317.064h-408.031l131.597 317.064c7.020 16.911-0.999 36.312-17.913 43.329-16.903 7.017-36.31-1.001-43.329-17.912l-142.145-342.482h-195.273c-18.31 0-33.153-14.844-33.153-33.153s14.844-33.153 33.153-33.153h19.936l64.999-355.476c14.13-77.27 81.398-133.353 159.947-133.353h452.398c78.551 0 145.818 56.083 159.945 133.353l64.999 355.476h19.936c18.308 0 33.153 14.844 33.153 33.153s-14.848 33.153-33.156 33.153zM825.15 134.246c-8.369-45.762-48.202-78.972-94.72-78.972h-452.397c-46.516 0-86.353 33.209-94.721 78.972l-62.531 341.981h766.901l-62.531-341.981z" />
<glyph unicode="&#xe91f;" glyph-name="download-folder" d="M953.416 359.506c31.605 0 56.889-25.284 56.889-56.889v-309.728c0-31.605-25.284-56.889-56.889-56.889h-880.724c-31.605 0-58.996 25.284-58.996 56.889v309.728c0 31.605 27.391 56.889 58.996 56.889s56.889-25.284 56.889-56.889v-250.733h766.947v250.733c0 31.605 25.284 56.889 56.889 56.889zM473.021 230.979l-231.77 231.77c-23.177 23.177-23.177 56.889 0 80.066s56.889 23.177 80.066 0l134.848-132.741v493.037c0 31.605 25.284 56.889 56.889 56.889s56.889-25.284 56.889-56.889v-493.037l132.741 132.741c23.177 23.177 58.996 23.177 82.173 0s23.177-56.889 0-80.066l-231.77-231.77c-10.535-10.535-25.284-16.856-40.033-16.856s-29.498 6.321-40.033 16.856z" />
<glyph unicode="&#xe920;" glyph-name="view" horiz-adv-x="1536" d="M1526.238 500.381c-13.722 18.771-340.668 459.619-758.245 459.619-417.574 0-744.539-440.848-758.246-459.601-12.996-17.808-12.996-41.962 0-59.769 13.707-18.772 340.672-459.616 758.246-459.616 417.577 0 744.523 440.848 758.245 459.601 13.013 17.805 13.013 41.976 0 59.767zM767.993 82.287c-307.587 0-573.991 292.597-652.853 388.252 78.759 95.74 344.605 388.186 652.853 388.186 307.574 0 573.959-292.549 652.849-388.255-78.754-95.736-344.602-388.184-652.849-388.184zM767.997 774.333c-167.526 0-303.826-136.3-303.826-303.826s136.3-303.826 303.826-303.826c167.529 0 303.823 136.3 303.823 303.826s-136.294 303.826-303.823 303.826zM767.997 267.959c-111.69 0-202.548 90.861-202.548 202.549s90.861 202.549 202.548 202.549c111.687 0 202.55-90.861 202.55-202.549s-90.863-202.549-202.55-202.549z" />
<glyph unicode="&#xe921;" glyph-name="like" horiz-adv-x="964" d="M934.84 285.979c20.317 25.913 30.063 53.694 28.817 82.308-1.241 31.513-15.342 56.186-26.949 71.32 13.475 33.587 18.661 86.456-26.329 127.507-32.967 30.062-88.943 43.539-166.484 39.807-54.531-2.488-100.141-12.647-102.008-13.062h-0.205c-10.366-1.866-21.353-4.147-32.551-6.634-0.831 13.269 1.452 46.234 25.913 120.457 29.027 88.322 27.371 155.911-5.391 201.108-34.414 47.478-89.355 51.21-105.527 51.21-15.549 0-29.855-6.427-40.014-18.245-23.013-26.745-20.318-76.089-17.415-98.895-27.367-73.394-104.079-253.354-168.972-303.32-1.244-0.829-2.281-1.866-3.317-2.903-19.074-20.111-31.928-41.88-40.637-60.955-12.232 6.635-26.123 10.366-41.051 10.366h-126.469c-47.686 0-86.249-38.77-86.249-86.249v-336.909c0-47.682 38.77-86.245 86.249-86.245h126.469c18.452 0 35.66 5.801 49.759 15.758l48.722-5.807c7.464-1.036 140.154-17.83 276.368-15.137 24.671-1.867 47.891-2.903 69.456-2.903 37.111 0 69.451 2.903 96.407 8.71 63.44 13.475 106.773 40.43 128.753 80.029 16.794 30.268 16.794 60.332 14.095 79.408 41.261 37.316 48.514 78.577 47.062 107.598-0.825 16.794-4.56 31.099-8.499 41.677zM86.249 32.623c-16.794 0-30.27 13.685-30.27 30.268v337.116c0 16.794 13.684 30.269 30.27 30.269h126.469c16.794 0 30.27-13.684 30.27-30.269v-336.906c0-16.794-13.684-30.274-30.27-30.274h-126.469v-0.205zM881.766 310.236c-8.71-9.126-10.366-23.016-3.735-33.798 0-0.205 8.499-14.715 9.535-34.623 1.452-27.16-11.607-51.206-38.972-71.734-9.746-7.463-13.685-20.317-9.541-31.925 0-0.211 8.915-27.576-5.596-53.495-13.89-24.877-44.785-42.707-91.642-52.658-37.521-8.090-88.528-9.541-151.139-4.566-0.829 0-1.865 0-2.902 0-133.312-2.897-268.075 14.517-269.526 14.722h-0.207l-20.94 2.488c1.244 5.807 1.866 12.029 1.866 18.245v337.116c0 8.915-1.451 17.622-3.939 25.708 3.732 13.891 14.099 44.783 38.563 71.113 93.090 73.809 184.107 322.809 188.046 333.59 1.659 4.354 2.073 9.123 1.244 13.891-3.524 23.221-2.281 51.625 2.696 60.125 10.988-0.207 40.636-3.317 58.466-27.989 21.148-29.233 20.317-81.48-2.488-150.727-34.831-105.53-37.734-161.093-10.159-185.558 13.684-12.232 31.928-12.854 45.198-8.085 12.649 2.903 24.672 5.39 36.075 7.257 0.831 0.207 1.867 0.414 2.693 0.622 63.651 13.891 177.682 22.391 217.281-13.684 33.587-30.684 9.746-71.32 7.054-75.674-7.674-11.61-5.391-26.746 4.975-36.076 0.205-0.207 21.974-20.732 23.010-48.307 0.831-18.451-7.879-37.317-25.913-55.978z" />
<glyph unicode="&#xe922;" glyph-name="favourite" d="M944.359 806.228c-25.593 27.886-56.749 50.097-91.453 65.203-34.707 15.106-72.195 22.77-110.044 22.498-57.522 0.262-113.429-19.025-158.555-54.701-20.923-16.309-39.721-35.174-55.957-56.155-16.225 20.978-35.011 39.843-55.924 56.155-45.125 35.676-101.032 54.964-158.555 54.701-37.85 0.272-75.336-7.392-110.042-22.498s-65.86-37.317-91.455-65.203c-52.411-58.791-80.752-135.168-79.377-213.917 2.196-90.257 37.257-176.61 98.601-242.853 74.532-82.283 155.593-158.406 242.39-227.625l0.231-0.198c33.23-28.342 70.92-60.449 110.427-94.968 12.133-10.61 27.701-16.457 43.817-16.457s31.685 5.847 43.817 16.457c39.969 34.948 79.277 68.344 110.658 95.166 86.809 69.229 167.883 145.365 242.424 227.658 61.341 66.233 96.401 152.573 98.601 242.82 1.311 78.78-27.113 155.161-79.608 213.917v0zM314.038 818.020c40.669 0.116 80.176-13.58 112.045-38.846 25.428-20.386 46.903-45.264 63.356-73.398 4.027-6.762 9.738-12.363 16.582-16.252 6.841-3.89 14.577-5.934 22.445-5.934 7.872 0 15.604 2.045 22.445 5.934 6.844 3.889 12.556 9.49 16.582 16.252 16.467 28.134 37.951 53.011 63.389 73.398 31.879 25.273 71.396 38.97 112.078 38.846 27.334 0.216 54.411-5.299 79.486-16.188s47.586-26.912 66.088-47.036c39.51-44.768 60.733-102.758 59.458-162.453-2.249-72.572-31.126-141.781-81.127-194.428-71.776-78.713-149.679-151.615-232.977-218.013l-0.264-0.231c-29.927-25.501-66.791-56.915-105.274-90.343-37.426 32.636-73.199 63.125-105.010 90.244-83.383 66.477-161.365 139.465-233.207 218.277-50.020 52.65-78.91 121.873-81.16 194.461-1.275 59.695 19.949 117.685 59.458 162.453 18.504 20.132 41.021 36.162 66.101 47.057s52.163 16.414 79.506 16.199v0z" />
<glyph unicode="&#xe923;" glyph-name="favourite-add" horiz-adv-x="1092" d="M1005.616 864.9c-56.538 61.325-134.124 95.1-218.474 95.1-63.051 0-120.792-19.933-171.625-59.242-25.651-19.842-48.892-44.117-69.384-72.45-20.483 28.325-43.733 52.608-69.392 72.45-50.825 39.308-108.567 59.242-171.617 59.242-84.35 0-161.942-33.775-218.483-95.1-55.867-60.608-86.642-143.408-86.642-233.158 0-92.375 34.425-176.934 108.333-266.117 66.117-79.775 161.142-160.756 271.184-254.534 37.575-32.024 80.166-68.321 124.391-106.988 11.683-10.233 26.675-15.872 42.225-15.872 15.542 0 30.542 5.639 42.209 15.852 44.225 38.673 86.841 74.991 124.43 107.035 110.025 93.757 205.053 174.732 271.169 254.516 73.905 89.175 108.326 173.733 108.326 266.116 0 89.742-30.775 172.542-86.651 233.15z" />
<glyph unicode="&#xe924;" glyph-name="light-theme" d="M675.364 611.343c-41.452 41.447-99.963 68.266-163.354 68.266s-121.905-25.6-163.353-68.266c-41.447-41.448-68.266-99.962-68.266-163.353s26.819-121.902 68.266-163.354c41.448-41.446 99.962-68.265 163.353-68.265s121.902 25.6 163.354 68.265c41.446 41.452 68.265 99.963 68.265 163.354s-25.6 121.905-68.265 163.353zM631.475 328.525c-30.474-30.479-73.139-48.763-119.465-48.763-46.324 0-88.991 18.284-119.467 48.763-30.476 30.474-48.762 73.139-48.762 119.465 0 46.324 18.286 88.991 48.762 119.467s73.143 48.762 119.467 48.762c46.326 0 88.991-18.286 119.465-48.762 30.479-30.476 48.763-73.143 48.763-119.467 0-46.326-18.284-88.991-48.763-119.465zM941.117 479.697h-93.87c-17.065 0-31.693-14.628-31.693-31.695s14.628-31.694 31.693-31.694h93.87c17.065 0 31.693 14.628 31.693 31.694s-14.628 31.695-31.693 31.695zM511.998 144.445c-17.067 0-31.695-14.628-31.695-31.693v-93.87c0-17.065 14.628-31.693 31.695-31.693s31.694 14.628 31.694 31.693v93.87c0 17.065-14.628 31.693-31.694 31.693zM837.473 166.41l-67.046 67.052c-10.972 12.191-31.698 12.191-43.889 0s-12.191-31.698 0-43.889l67.052-67.046c12.186-12.191 31.693-12.191 43.884 0s12.191 31.698 0 43.884zM511.998 908.8c-17.067 0-31.695-14.628-31.695-31.695v-93.866c0-17.067 14.628-31.695 31.695-31.695s31.694 14.628 31.694 31.695v93.866c0 17.067-14.628 31.695-31.694 31.695zM838.712 773.489c-12.191 12.19-31.698 12.19-43.889 0l-67.046-67.048c-12.191-12.191-12.191-31.695 0-43.886 10.972-12.191 31.693-12.191 43.884 0l67.052 67.047c12.191 12.191 12.191 31.695 0 43.886zM176.762 479.697h-93.866c-17.067 0-31.695-14.628-31.695-31.695s13.409-31.694 31.695-31.694h93.866c17.067 0 31.695 14.628 31.695 31.694s-14.628 31.695-31.695 31.695zM296.236 233.462c-10.971 12.191-31.695 12.191-43.886 0l-67.048-67.052c-12.19-12.186-12.19-31.693 0-43.884s31.695-12.191 43.886 0l67.047 67.046c12.191 12.191 12.191 31.698 0 43.889zM296.236 706.441l-67.047 67.048c-12.191 12.19-31.695 12.19-43.886 0s-12.19-31.695 0-43.886l67.048-67.047c12.19-12.191 31.695-12.191 43.886 0s12.191 31.695 0 43.886z" />
<glyph unicode="&#xe925;" glyph-name="dark-theme" d="M926.592 356.152c-66.13-59.976-151.629-93.010-240.727-93.010-197.798 0-358.723 160.916-358.723 358.721 0 89.1 33.033 174.593 93.009 240.729 18.549 20.454-1.343 52.629-27.963 45.085-195.173-55.287-340.988-235.048-340.988-451.379 0-259.254 209.806-469.097 469.1-469.097 215.828 0 395.95 145.321 451.379 340.987 7.526 26.568-24.581 46.546-45.087 27.965v0zM520.3 42.388c-228.23 0-413.911 185.682-413.911 413.909 0 153.24 85.5 292.276 216.12 363.65-32.97-60.307-50.555-128.236-50.555-198.085 0-228.227 185.675-413.909 413.912-413.909 69.852 0 137.774 17.587 198.083 50.555-71.373-130.621-210.412-216.12-363.648-216.12v0zM508.161 544.546l65.356-32.681 32.681-65.354c4.675-9.344 14.223-15.252 24.678-15.252 10.45 0 20.004 5.908 24.684 15.252l32.681 65.354 65.352 32.681c9.344 4.676 15.252 14.232 15.252 24.68 0 10.456-5.908 20.011-15.252 24.687l-65.352 32.674-32.681 65.356c-4.68 9.351-14.234 15.258-24.684 15.258-10.455 0-20.009-5.906-24.678-15.258l-32.681-65.356-65.356-32.674c-9.352-4.676-15.258-14.231-15.258-24.687 0-10.448 5.906-20.004 15.258-24.68v0zM606.423 581.341c5.345 2.672 9.677 7.003 12.339 12.34l12.114 24.223 12.114-24.223c2.668-5.337 6.999-9.668 12.344-12.34l24.223-12.108-24.233-12.114c-5.335-2.672-9.667-7.003-12.334-12.34l-12.114-24.223-12.114 24.223c-2.662 5.337-6.994 9.668-12.339 12.34l-24.223 12.108 24.223 12.115zM796.237 759.836h27.592v-27.591c0-15.244 12.355-27.598 27.597-27.598 15.237 0 27.592 12.354 27.592 27.598v27.591h27.592c15.242 0 27.597 12.354 27.597 27.598 0 15.237-12.355 27.591-27.597 27.591h-27.592v27.598c0 15.237-12.355 27.591-27.592 27.591-15.242 0-27.597-12.354-27.597-27.591v-27.598h-27.592c-15.242 0-27.597-12.354-27.597-27.591 0-15.244 12.355-27.598 27.597-27.598v0z" />
<glyph unicode="&#xe926;" glyph-name="close" d="M512.090 330.653l-385.3-355.268-126.79 117.681 385.299 354.934-385.299 354.937 127.059 117.678 385.299-355.848 385.296 355.848 126.346-117.678-385.21-354.937 384.674-354.934-126.346-117.35-385.029 354.937z" />
<glyph unicode="&#xe927;" glyph-name="arrow-right" d="M832 462.203l-90.51 90.51-497.803-497.803 90.51-90.51 497.803 497.803zM832 462.203l-497.803 497.803-90.51-90.51 497.803-497.803 90.51 90.51z" />
<glyph unicode="&#xe928;" glyph-name="arrow-left" d="M192 462.203l90.51 90.51 497.803-497.803-90.51-90.51-497.803 497.803zM192 462.203l497.803 497.803 90.51-90.51-497.803-497.803-90.51 90.51z" />
<glyph unicode="&#xe929;" glyph-name="arrow-down" horiz-adv-x="1536" d="M768.187 361.348l-591.937 598.652-176.25-179.332 768-780.668 768 780.668-176.256 179.332-591.557-598.652z" />
<glyph unicode="&#xe92a;" glyph-name="search" d="M965.236 27.497l-230.458 253.502c57.179 72.076 89.4 162.629 91.332 256.691 1.932 94.064-26.539 186.010-80.709 260.645s-130.796 127.492-217.213 149.838c-86.422 22.346-177.465 12.842-258.086-26.941s-145.996-107.463-185.322-191.858c-39.326-84.395-50.25-180.453-30.966-272.301s67.621-173.995 137.025-232.858c69.403-58.862 155.719-90.922 244.685-90.882 80.193-0.214 158.467 25.938 223.99 74.837l232.225-255.626c4.639-5.107 10.187-9.194 16.322-12.030s12.742-4.368 19.434-4.506c6.696-0.138 13.352 1.122 19.585 3.704 6.237 2.582 11.927 6.438 16.754 11.349 4.826 4.906 8.691 10.774 11.375 17.261 2.68 6.491 4.132 13.472 4.261 20.556 0.129 7.079-1.060 14.118-3.504 20.712-2.44 6.594-6.086 12.613-10.73 17.72v0.187zM435.489 852.455c57.158 0 113.037-17.925 160.56-51.509 47.527-33.584 84.569-81.318 106.443-137.166 21.878-55.848 27.599-117.301 16.446-176.587-11.148-59.29-38.676-113.749-79.093-156.494-40.417-42.741-91.915-71.854-147.972-83.643-56.063-11.794-114.172-5.743-166.98 17.39s-97.945 62.308-129.701 112.569c-31.756 50.261-48.706 109.354-48.706 169.803 0.086 81.032 30.562 158.72 84.742 216.018s127.639 89.528 204.262 89.619v0z" />
<glyph unicode="&#xe92b;" glyph-name="social-ln" d="M217.6 851.2c0-59.84-38.080-108.8-108.8-108.8-65.28 0-108.8 48.96-108.8 103.36 0 59.84 43.52 114.24 108.8 114.24s108.8-48.96 108.8-108.8zM0-19.2h217.6v707.2h-217.6v-707.2zM739.84 677.12c-114.24 0-179.52-65.28-206.72-108.8h-5.44l-10.88 92.48h-195.84c0-59.84 5.44-130.56 5.44-212.16v-467.84h217.6v386.24c0 21.76 0 38.080 5.44 54.4 16.32 38.080 43.52 87.040 103.36 87.040 76.16 0 108.8-65.28 108.8-152.32v-375.36h217.6v402.56c0 201.28-103.36 293.76-239.36 293.76z" />
<glyph unicode="&#xe92c;" glyph-name="social-fb" horiz-adv-x="585" d="M568.832 781.824h-162.45c-19.237 0-40.667-25.307-40.667-59.026v-117.029h203.264l-30.72-167.351h-172.544v-502.418h-191.781v502.126h-173.934v167.351h173.934v98.523c-1.973 32.168 2.516 64.406 13.202 94.811s27.354 58.363 49.019 82.223c21.665 23.861 47.89 43.14 77.125 56.703s60.892 21.132 93.101 22.263h162.45v-178.176z" />
<glyph unicode="&#xe92d;" glyph-name="social-telegram" horiz-adv-x="1144" d="M19.552 476.29l255.058-95.196 98.723-317.492c6.317-20.335 31.182-27.853 47.686-14.36l142.174 115.905c14.903 12.143 36.13 12.746 51.707 1.446l256.428-186.175c17.655-12.836 42.671-3.162 47.098 18.173l187.85 903.59c4.831 23.304-18.065 42.746-40.255 34.163l-1046.767-403.811c-25.832-9.962-25.607-46.535 0.299-56.243zM357.423 431.77l498.478 307.013c8.957 5.502 18.173-6.612 10.481-13.748l-411.388-382.404c-14.46-13.463-23.788-31.473-26.429-51.025l-14.014-103.852c-1.856-13.866-21.334-15.246-25.16-1.825l-53.897 189.377c-6.173 21.6 2.823 44.672 21.929 56.465z" />
<glyph unicode="&#xe92e;" glyph-name="social-instagram" d="M741.402 960h-458.822c-155.814 0-282.579-126.771-282.579-282.586v-458.822c0-155.821 126.765-282.586 282.579-282.586h458.822c155.827 0 282.592 126.771 282.592 282.586v458.822c0.006 155.814-126.765 282.586-282.592 282.586zM933.146 218.592c0-105.722-86.016-191.731-191.738-191.731h-458.829c-105.717-0.006-191.725 86.010-191.725 191.731v458.822c0 105.718 86.008 191.732 191.725 191.732h458.822c105.722 0 191.738-86.014 191.738-191.732v-458.822h0.006zM511.982 711.844c-145.493 0-263.857-118.364-263.857-263.857 0-145.484 118.364-263.846 263.857-263.846 145.496 0 263.858 118.362 263.858 263.846 0 145.493-118.362 263.857-263.858 263.857zM511.982 275.002c-95.39 0-173.004 77.601-173.004 172.991 0 95.396 77.607 173.004 173.004 173.004s173.004-77.607 173.004-173.004c0-95.39-77.613-172.991-173.004-172.991zM786.938 788.891c-17.504 0-34.701-7.087-47.059-19.503-12.422-12.356-19.565-29.558-19.565-47.123 0-17.51 7.149-34.706 19.565-47.123 12.352-12.356 29.555-19.503 47.059-19.503 17.568 0 34.707 7.148 47.123 19.503 12.416 12.417 19.501 29.619 19.501 47.123 0 17.565-7.085 34.767-19.501 47.123-12.358 12.417-29.555 19.503-47.123 19.503z" />
<glyph unicode="&#xe92f;" glyph-name="folder" horiz-adv-x="1317" d="M1301.277 495.88c-20.005 32.263-55.362 51.549-94.574 51.549h-873.157c-43.282 0-82.647-24.399-100.315-62.177l-230.945-484.221c8.719-35.452 41.836-61.945 81.281-61.945h928.972c39.717 0 76.017 22.462 93.755 58.002l199.614 400.093c15.762 31.661 14.014 68.555-4.63 98.698v0zM186.176 559.744c17.648 37.767 57.023 62.176 100.315 62.176h822.216v105.167c0 43.352-36.571 78.629-81.518 78.629h-479.428c-0.704 0-1.186 0.181-1.366 0.312l-85.81 119.982c-15.198 21.284-40.3 33.991-67.118 33.991h-311.924c-44.97 0-81.542-35.277-81.542-78.629v-711.958l186.176 390.331z" />
<glyph unicode="&#xe930;" glyph-name="star" d="M1021.323 567.244c-6.744 20.735-25.132 35.414-46.807 37.376l-295.6 26.837-116.819 273.505c-8.626 20.094-28.253 33.063-50.098 33.063-21.84 0-41.476-12.969-50.046-33.063l-116.822-273.505-295.645-26.837c-21.672-2-40.024-16.68-46.806-37.376-6.742-20.735-0.516-43.478 15.875-57.853l223.449-195.931-65.884-290.177c-4.82-21.338 3.461-43.403 21.165-56.198 9.516-6.914 20.696-10.367 31.915-10.367 9.641 0 19.289 2.56 27.906 7.719l254.894 152.41 254.849-152.41c18.695-11.171 42.203-10.147 59.87 2.648 17.701 12.795 25.985 34.86 21.163 56.198l-65.882 290.177 223.447 195.931c16.384 14.375 22.621 37.071 15.877 57.853z" />
<glyph unicode="&#xe931;" glyph-name="dots" horiz-adv-x="4608" d="M768 470.894c0-189.355-171.923-342.858-384-342.858s-384 153.503-384 342.858c0 189.355 171.923 342.858 384 342.858s384-153.503 384-342.858zM4608 470.894c0-189.355-171.923-342.858-384-342.858s-384 153.503-384 342.858c0 189.355 171.923 342.858 384 342.858s384-153.503 384-342.858zM2688 470.894c0-189.355-171.923-342.858-384-342.858s-384 153.503-384 342.858c0 189.355 171.923 342.858 384 342.858s384-153.503 384-342.858z" />
<glyph unicode="&#xe932;" glyph-name="remove" d="M512 106q140 0 241 101t101 241-101 241-241 101-241-101-101-241 101-241 241-101zM512 874q176 0 301-125t125-301-125-301-301-125-301 125-125 301 125 301 301 125zM622 618l60-60-110-110 110-110-60-60-110 110-110-110-60 60 110 110-110 110 60 60 110-110z" />
<glyph unicode="&#xe933;" glyph-name="info" d="M554 576v86h-84v-86h84zM554 234v256h-84v-256h84zM512 874q176 0 301-125t125-301-125-301-301-125-301 125-125 301 125 301 301 125z" />
<glyph unicode="&#xe934;" glyph-name="info_outline" d="M470 576v86h84v-86h-84zM512 106q140 0 241 101t101 241-101 241-241 101-241-101-101-241 101-241 241-101zM512 874q176 0 301-125t125-301-125-301-301-125-301 125-125 301 125 301 301 125zM470 234v256h84v-256h-84z" />
<glyph unicode="&#xe935;" glyph-name="done_outline" d="M844 866l180-180-664-664-360 360 180 180 180-180zM844 746l-484-484-180 178-60-58 240-240 544 544z" />
<glyph unicode="&#xe936;" glyph-name="done" d="M384 268l452 454 60-60-512-512-238 238 58 60z" />
<glyph unicode="&#xe937;" glyph-name="copy" d="M810 64v598h-468v-598h468zM810 746q34 0 60-25t26-59v-598q0-34-26-60t-60-26h-468q-34 0-60 26t-26 60v598q0 34 26 59t60 25h468zM682 918v-86h-512v-598h-84v598q0 34 25 60t59 26h512z" />
<glyph unicode="&#xe938;" glyph-name="pencil" d="M978.125 914.125c-28.774 28.774-67.021 44.595-107.725 44.595s-78.95-15.821-107.725-44.595l-652.8-652.8c-2.662-2.662-4.659-5.837-5.939-9.37l-102.4-281.6c-3.379-9.37-1.075-19.814 5.939-26.829 4.864-4.864 11.418-7.475 18.125-7.475 2.918 0 5.888 0.512 8.755 1.536l281.6 102.4c3.533 1.28 6.707 3.328 9.37 5.939l652.8 652.8c28.774 28.774 44.595 67.021 44.595 107.725s-15.821 78.95-44.595 107.725zM293.12 86.118l-224.717-81.715 81.715 224.717 566.682 566.682 143.002-143.002-566.682-566.682zM941.875 734.925l-45.875-45.875-143.002 143.002 45.875 45.875c19.098 19.098 44.493 29.594 71.475 29.594s52.378-10.496 71.475-29.594c19.098-19.098 29.594-44.493 29.594-71.475s-10.496-52.378-29.594-71.475z" />
<glyph unicode="&#xe939;" glyph-name="doc" d="M908.037 593.715h-24.585v118.657c0 0.74-0.12 1.485-0.217 2.234-0.039 4.712-1.539 9.338-4.764 13.004l-197.432 225.523c-0.058 0.058-0.12 0.078-0.159 0.14-1.175 1.315-2.547 2.409-3.999 3.354-0.431 0.288-0.863 0.529-1.315 0.781-1.255 0.684-2.589 1.253-3.961 1.666-0.372 0.103-0.704 0.25-1.076 0.351-1.494 0.355-3.042 0.575-4.607 0.575h-485.217c-22.157 0-40.156-18.021-40.156-40.158v-326.117h-24.584c-31.697 0-57.398-25.685-57.398-57.392v-298.468c0-31.677 25.7-57.394 57.398-57.394h24.584v-204.316c0-22.139 17.998-40.156 40.156-40.156h662.589c22.137 0 40.158 18.017 40.158 40.156v204.314h24.585c31.686 0 57.39 25.706 57.39 57.394v298.459c0.002 31.716-25.704 57.392-57.39 57.392zM180.705 919.842h465.137v-205.45c0-11.099 8.998-20.079 20.079-20.079h177.374v-100.598h-662.589v326.126zM662.518 403.411c0-91.284-55.345-146.618-136.725-146.618-82.603 0-130.931 62.364-130.931 141.657 0 83.44 53.28 145.803 135.472 145.803 85.489 0 132.185-64.009 132.185-140.843zM120.172 262.57v273.41c23.129 3.726 53.274 5.793 85.093 5.793 52.863 0 87.138-9.504 113.987-29.734 28.911-21.483 47.094-55.769 47.094-104.912 0-53.283-19.408-90.038-46.25-112.754-29.329-24.372-73.941-35.929-128.466-35.929-32.648-0.002-55.767 2.064-71.457 4.126zM843.295-12.96h-662.589v193.43h662.589v-193.43zM846.331 309.233c19.001 0 40.070 4.152 52.452 9.090l9.512-49.146c-11.572-5.805-37.59-11.97-71.451-11.97-96.235 0-145.803 59.882-145.803 139.186 0 94.974 67.733 147.861 151.978 147.861 32.627 0 57.431-6.608 68.59-12.397l-12.814-49.966c-12.795 5.364-30.558 10.33-52.87 10.33-49.974 0-88.805-30.156-88.805-92.104-0.009-55.763 33.038-90.884 89.213-90.884zM299.421 405.061c0.413 57.836-33.462 88.396-87.554 88.396-14.045 0-23.151-1.234-28.509-2.482v-182.153c5.356-1.242 14.045-1.242 21.896-1.242 56.992-0.403 94.167 30.989 94.167 97.48zM461.362 399.706c0-54.538 25.613-92.942 67.737-92.942 42.548 0 66.911 40.49 66.911 94.588 0 49.992-23.95 92.929-67.324 92.929-42.524-0.011-67.324-40.486-67.324-94.574z" />
<glyph unicode="&#xe93a;" glyph-name="xlsx" d="M908.049 593.72h-24.589v118.641c0 0.74-0.116 1.485-0.204 2.241-0.039 4.706-1.548 9.333-4.774 12.999l-197.441 225.532c-0.062 0.058-0.12 0.078-0.159 0.14-1.177 1.315-2.547 2.409-4.002 3.354-0.428 0.288-0.861 0.529-1.311 0.783-1.255 0.682-2.59 1.255-3.961 1.668-0.374 0.097-0.708 0.25-1.078 0.347-1.492 0.355-3.040 0.575-4.607 0.575h-485.217c-22.156 0-40.156-18.021-40.156-40.158v-326.111h-24.585c-31.695 0-57.396-25.691-57.396-57.398v-298.468c0-31.677 25.7-57.394 57.396-57.394h24.585v-204.316c0-22.139 18-40.156 40.156-40.156h662.587c22.137 0 40.156 18.017 40.156 40.156v204.314h24.589c31.686 0 57.39 25.706 57.39 57.394v298.459c0.002 31.716-25.685 57.398-57.379 57.398zM180.705 919.842h465.139v-205.45c0-11.094 8.996-20.079 20.079-20.079h177.372v-100.592h-662.589v326.12zM587.509 372.332c-39.452 13.744-65.195 35.569-65.195 70.118 0 40.524 33.823 71.524 89.862 71.524 26.765 0 46.509-5.629 60.589-11.977l-11.973-43.329c-9.508 4.568-26.419 11.275-49.675 11.275s-34.529-10.574-34.529-22.908c0-15.156 13.393-21.844 44.039-33.47 41.921-15.511 61.656-37.352 61.656-70.822 0-39.823-30.657-73.65-95.843-73.65-27.125 0-53.901 7.039-67.292 14.45l10.913 44.393c14.452-7.392 36.656-14.805 59.549-14.805 24.686 0 37.704 10.216 37.704 25.725 0.009 14.788-11.264 23.261-39.805 33.475zM496.632 317.725v-45.116h-148.362v237.515h53.931v-192.399h94.431zM175.999 272.609h-61.307l68.706 120.187-66.25 117.337h61.671l20.777-43.347c7.048-14.448 12.338-26.061 17.981-39.472h0.685c5.653 15.156 10.229 25.726 16.202 39.472l20.088 43.347h61.308l-66.95-115.916 70.484-121.588h-62.009l-21.506 42.996c-8.795 16.538-14.437 28.883-21.134 42.627h-0.7c-4.94-13.744-10.916-26.089-18.323-42.627l-19.724-43.017zM843.295-12.971h-662.589v193.441h662.587v-193.441zM843.657 272.609l-21.5 42.996c-8.806 16.553-14.442 28.883-21.14 42.628h-0.684c-4.942-13.746-10.941-26.076-18.353-42.628l-19.705-42.996h-61.325l68.706 120.187-66.246 117.337h61.669l20.803-43.347c7.041-14.448 12.313-26.061 17.963-39.472h0.704c5.627 15.156 10.195 25.726 16.194 39.472l20.081 43.347h61.323l-66.952-115.916 70.471-121.588-62.009-0.021z" />
<glyph unicode="&#xe93b;" glyph-name="jpg" d="M469.667 494.22c-13.774 0-23.124-1.339-28.021-2.681v-88.52c5.795-1.335 12.912-1.785 22.687-1.785 36.044 0 58.294 18.255 58.294 48.932 0 27.587-19.143 44.053-52.96 44.053zM908.038 593.72h-24.589v118.641c0 0.74-0.117 1.485-0.216 2.235-0.039 4.711-1.537 9.338-4.763 13.004l-197.432 225.532c-0.059 0.058-0.117 0.078-0.158 0.141-1.177 1.314-2.549 2.408-3.999 3.354-0.429 0.288-0.863 0.53-1.313 0.779-1.257 0.686-2.59 1.255-3.962 1.666-0.372 0.104-0.706 0.257-1.078 0.353-1.491 0.353-3.040 0.574-4.609 0.574h-485.215c-22.157 0-40.157-18.020-40.157-40.159v-326.112h-24.583c-31.696 0-57.396-25.689-57.396-57.396v-298.471c0-31.685 25.7-57.391 57.396-57.391h24.585v-204.313c0-22.136 18-40.159 40.157-40.159h662.587c22.136 0 40.157 18.020 40.157 40.159v204.313h24.589c31.687 0 57.393 25.706 57.393 57.391v298.462c-0.002 31.705-25.708 57.396-57.394 57.396zM180.706 919.834h465.136v-205.456c0-11.093 9-20.078 20.078-20.078h177.372v-100.593h-662.587v326.127zM589.784 451.957c0-29.357-9.786-54.269-27.569-71.191-23.148-21.794-57.402-31.568-97.421-31.568-8.901 0-16.922 0.429-23.148 1.324v-107.206h-67.172v295.816c20.921 3.579 50.274 6.235 91.647 6.235 41.813 0 71.62-8 91.662-24.023 19.11-15.118 32.001-40.036 32.001-69.388zM161.804 245.54l7.578 54.715c9.348-3.118 21.343-5.352 34.687-5.352 28.491 0 46.27 12.921 46.27 59.625v188.624h67.612v-189.507c0-85.421-40.938-115.215-106.765-115.215-15.557-0.009-36.028 2.638-49.382 7.109zM843.294-12.971h-662.589v193.442h662.587v-193.442zM883.429 257.098c-20.9-7.117-60.49-16.901-100.117-16.901-54.688 0-94.296 13.793-121.863 40.478-27.589 25.795-42.735 64.942-42.274 108.99 0.429 99.652 72.94 156.593 171.274 156.593 38.705 0 68.529-7.55 83.195-14.676l-14.235-54.269c-16.47 7.119-36.941 12.902-69.862 12.902-56.491 0-99.176-32.040-99.176-96.99 0-61.834 38.686-98.313 94.303-98.313 15.568 0 28.030 1.785 33.362 4.46v62.725h-46.275v52.933h111.666v-157.931z" />
<glyph unicode="&#xe93c;" glyph-name="user--" d="M253.701 350.824c65.411-67.5 156.944-109.714 258.299-109.714 198.113 0 359.445 161.332 359.445 359.445s-161.332 359.445-359.445 359.445-359.445-161.332-359.445-359.445c0-94.459 36.78-180.558 96.549-244.715 1.254-2.090 2.926-3.553 4.598-5.016zM512 282.488c-78.158 0-150.047 28.421-205.427 75.442 93.205 30.929 127.687 68.545 140.434 93.623 17.763-7.732 37.616-11.912 59.559-12.121 0.418 0 1.045 0 1.463 0 0.209 0 1.463 0 1.881 0s1.045 0 1.463 0c23.824 0.418 45.349 5.224 63.948 14.211 11.912-25.078 45.767-63.948 141.688-95.713-55.171-47.020-126.851-75.442-205.009-75.442zM395.807 667.011c0 0.418 0 0.836 0 1.254 5.016 108.878 85.264 117.447 109.923 117.447 1.045 0 1.881 0 2.508 0s1.045 0 1.672 0 1.254 0 2.508 0c24.451 0 104.908-8.568 109.923-117.447 0-0.418 0-0.836 0-1.254 0.209-1.045 10.449-101.773-36.571-154.645-18.599-20.898-43.468-31.347-75.86-31.556-0.209 0-0.627 0-0.627 0v0c-0.209 0-0.418 0-0.627 0-32.601 0.418-57.26 10.658-75.86 31.556-47.229 52.454-37.198 153.6-36.989 154.645zM512 918.622c175.334 0 318.067-142.733 318.067-318.067 0-80.248-30.093-153.809-79.203-209.816-135.001 39.288-140.225 86.936-140.225 87.562 0-0.836 0-1.045 0-1.045h-1.463c2.508 2.508 5.016 5.016 7.523 7.732 57.469 64.575 47.856 175.125 46.811 185.992-5.642 115.357-84.846 156.317-151.092 156.317-1.254 0-2.508 0-3.344 0s-1.881 0-3.344 0c-66.247 0-145.659-40.96-151.092-156.317-1.045-10.658-10.449-121.208 46.811-185.992 3.344-3.762 6.896-7.314 10.449-10.658-4.389-12.121-26.54-50.573-138.762-83.383-49.319 56.007-79.203 129.358-79.203 209.607 0 175.334 142.733 318.067 318.067 318.067zM249.522 81.241h524.748c11.494 0 20.689 9.195 20.689 20.689s-9.195 20.689-20.689 20.689h-524.748c-11.494 0-20.689-9.195-20.689-20.689 0-11.285 9.404-20.689 20.689-20.689zM702.798-43.311c0 11.494-9.195 20.689-20.689 20.689h-340.219c-11.494 0-20.689-9.195-20.689-20.689s9.195-20.689 20.689-20.689h340.428c11.285 0 20.48 9.404 20.48 20.689z" />
<glyph unicode="&#xe93d;" glyph-name="plus" d="M56.889 504.889h910.222c31.419 0 56.889-25.47 56.889-56.889s-25.47-56.889-56.889-56.889h-910.222c-31.419 0-56.889 25.47-56.889 56.889s25.47 56.889 56.889 56.889zM455.111-7.111v910.222c0 31.419 25.47 56.889 56.889 56.889s56.889-25.47 56.889-56.889v-910.222c0-31.419-25.47-56.889-56.889-56.889s-56.889 25.47-56.889 56.889z" />
<glyph unicode="&#xe93e;" glyph-name="bullet-list" d="M292.75 877.167c-65.856 0-119.917-53.977-119.917-119.833v-614c0-65.856 54.060-119.917 119.917-119.917h438.583c65.582 0 119.34 53.963 119.917 119.667 0 0.037 0 0.081 0 0.125s0 0.088 0 0.132v-0.007 614c0 65.856-54.060 119.833-119.917 119.833h-438.583zM292.75 813.167h438.583c31.424 0 55.917-24.41 55.917-55.833v-613.75c-0.277-31.577-25.072-56.167-55.917-56.167h-438.583c-31.424 0-55.917 24.493-55.917 55.917v614c0 31.424 24.493 55.833 55.917 55.833zM336.667 699.333c-17.673 0-32-14.327-32-32v0c0-17.673 14.327-32 32-32v0h43.917c17.673 0 32 14.327 32 32v0c0 17.673-14.327 32-32 32v0h-43.917zM512 699.333c-17.673 0-32-14.327-32-32v0c0-17.673 14.327-32 32-32v0h175.333c17.673 0 32 14.327 32 32v0c0 17.673-14.327 32-32 32v0h-175.333zM336.667 480c-17.673 0-32-14.327-32-32v0c0-17.673 14.327-32 32-32v0h43.917c17.673 0 32 14.327 32 32v0c0 17.673-14.327 32-32 32v0h-43.917zM512 480c-17.673 0-32-14.327-32-32v0c0-17.673 14.327-32 32-32v0h175.333c17.673 0 32 14.327 32 32v0c0 17.673-14.327 32-32 32v0h-175.333zM336.667 260.75c-17.673 0-32-14.327-32-32v0c0-17.673 14.327-32 32-32v0h43.917c17.673 0 32 14.327 32 32v0c0 17.673-14.327 32-32 32v0h-43.917zM512 260.75c-17.673 0-32-14.327-32-32v0c0-17.673 14.327-32 32-32v0h175.333c17.673 0 32 14.327 32 32v0c0 17.673-14.327 32-32 32v0h-175.333z" />
<glyph unicode="&#xe93f;" glyph-name="certificate" d="M511.083 874.667c-190.49 0-345.583-155.093-345.583-345.583s155.093-345.583 345.583-345.583c190.491 0 345.583 155.093 345.583 345.583s-155.092 345.583-345.583 345.583zM511.083 810.667c155.903 0 281.583-125.681 281.583-281.583s-125.681-281.583-281.583-281.583c-155.902 0-281.583 125.681-281.583 281.583s125.682 281.583 281.583 281.583zM255.083 373.333c-11.347-0.351-21.171-6.557-26.585-15.685l-0.081-0.148-106.667-182.167c-2.771-4.64-4.409-10.234-4.409-16.211 0-17.675 14.328-32.003 32.003-32.003 0.612 0 1.22 0.017 1.823 0.051l-0.084-0.004 105.083 5.75 47.667-93.667c5.408-10.461 16.144-17.488 28.522-17.488 11.676 0 21.891 6.252 27.481 15.592l0.081 0.146 94.333 159.583c2.788 4.651 4.437 10.262 4.437 16.258 0 14.838-10.098 27.318-23.798 30.942l-0.223 0.050c-61.218 15.763-113.364 61.613-152.833 115.833-5.887 8.026-15.282 13.178-25.881 13.178-0.306 0-0.61-0.004-0.914-0.013l0.045 0.001zM262.167 288.583c32.829-37.18 72.65-67.207 120-87.667l-47.667-80.75-30.75 60.333c-5.412 10.448-16.141 17.464-28.51 17.464-0.612 0-1.22-0.017-1.824-0.051l0.084 0.004-66.5-3.583 55.167 94.25zM767.167 373.333c-10.367-0.299-19.463-5.483-25.102-13.321l-0.065-0.095c-38.824-54.275-91.217-99.432-152.833-115.667-13.828-3.739-23.834-16.173-23.834-30.943 0-5.982 1.641-11.581 4.498-16.37l-0.081 0.147 94.333-160c5.67-9.485 15.886-15.738 27.561-15.738 12.378 0 23.114 7.027 28.438 17.309l0.084 0.178 47.667 93.667 105.083-5.75c0.53-0.031 1.151-0.049 1.775-0.049 17.675 0 32.003 14.328 32.003 32.003 0 5.944-1.62 11.509-4.443 16.278l0.081-0.148-106.667 182.667c-5.657 9.546-15.905 15.845-27.625 15.845-0.308 0-0.615-0.004-0.92-0.013l0.045 0.001zM761.75 288.5l55.25-94.583-66.5 3.583c-0.52 0.030-1.128 0.047-1.74 0.047-12.368 0-23.098-7.016-28.426-17.286l-0.084-0.178-30.667-60.25-47.75 81c47.251 20.412 87.064 50.411 119.917 87.667zM511.25 747.5c-16.106 0-33.534-9.861-41.083-26.333l0.333 0.833-41.917-85.083-93.083-13.5c-0.049 0-0.108 0-0.167 0s-0.117 0-0.176 0h0.009c-35.227-5.419-50.696-52.054-25.417-77.333 0.112-0.113 0.22-0.222 0.33-0.33l0.004-0.004 67.583-65.667-15.833-92.833 0.167 0.667c-6.892-35.838 35.012-65.939 66.75-48l82.833 43.25 83.75-43.75c32.184-16.792 73.116 12.253 65.833 48.667l-15.667 92.083 66.917 65.333c26.742 25.334 10.567 73.803-26 78.083h-0.083l-92.167 13.333-41.917 85.083c-0.112 0.238-0.139 0.293-0.167 0.347l0.084-0.18c-7.966 15.933-24.811 25.333-40.917 25.333zM511.333 660.167l29.583-59.917c0.112-0.238 0.139-0.292 0.167-0.347l-0.084 0.18c6.713-13.426 19.871-22.207 32.583-24.75 0.341-0.088 0.905-0.204 1.473-0.305l66.193-9.611-47.5-46.333c-0.085-0.084-0.166-0.165-0.247-0.247l-0.003-0.003c-10.529-10.529-15.931-24.096-12.583-40.833l11-64.583-59.083 30.917 0.667-0.417c-14.396 7.998-29.437 7.998-43.833 0l0.667 0.417-59.083-30.917 11 64.583c2.865 14.324-2.57 30.82-12.583 40.833-0.112 0.113-0.22 0.222-0.33 0.33l-0.004 0.004-47.667 46.25 65.833 9.583c0.762 0.129 1.325 0.245 1.883 0.376l-0.216-0.043c14.724 2.945 25.287 11.566 31.917 23.5 0.178 0.3 0.428 0.763 0.666 1.234l0.084 0.183 29.5 59.917z" />
<glyph unicode="&#xe940;" glyph-name="shop" d="M161.25 538.083c-17.673 0-32-14.327-32-32v0-312.75c0-65.856 54.060-119.917 119.917-119.917h526.083c65.856 0 119.833 54.060 119.833 119.917v305.917c0 17.673-14.327 32-32 32v0c-17.673 0-32-14.327-32-32v0-305.917c0-31.424-24.41-55.917-55.833-55.917h-526.083c-31.424 0-55.917 24.493-55.917 55.917v312.75c0 17.673-14.327 32-32 32v0zM235.917 822.583c-55.133 0-107.171-30.782-117.917-83.167v0.25l-24.75-116.917 0.083 0.083c-13.151-61.369 14.587-127.071 72.667-155.333 24.63-12.053 52.944-18.667 83.167-18.667 43.043 0 82.653 13.53 112.667 37.083s50.75 58.595 50.75 98.167c0 17.673-14.327 32-32 32v0c-17.673 0-32-14.327-32-32v0c0-17.601-8.691-34.054-26.25-47.833s-43.676-23.417-73.167-23.417c-20.978 0-39.607 4.593-55.083 12.167-0.012 0-0.027 0-0.042 0s-0.029 0-0.044 0h0.002c-29.736 14.435-45.488 50.252-38.167 84.417 0.028 0.028 0.055 0.055 0.082 0.082l0.001 0.001 24.75 116.917c0 0.025 0 0.054 0 0.083s0 0.059 0 0.088v-0.005c2.908 14.175 24.196 32 55.25 32h553c30.507 0 52.171-17.824 55.333-32.333l24.083-112.25 0.083-0.583c0.134-1.459 0.34-2.767 0.623-4.046l-0.039 0.212c7.601-34.052-7.897-69.571-38.083-84.083-0.238-0.112-0.293-0.139-0.347-0.167l0.18 0.084c-15.315-7.495-34.611-12.083-55.083-12.083-59.486 0-99.417 35.889-99.417 71.25 0 17.673-14.327 32-32 32v0c-17.673 0-32-14.327-32-32v0c0-78.984 76.983-135.25 163.417-135.25 29.81 0 58.245 6.418 83 18.5l0.083 0.083c51.977 25.050 74.744 80.433 70.667 135.5 0.043 0.062 0.416 0.583 0.417 0.583 0.005 0.012 2.499 10.069 2.5 10.083 0.001 0.007-0.045 1.659-0.083 3.333s-0.082 3.325-0.083 3.333c-0.001 0.007-0.178 0.908-0.25 1.25-0.11 0.878-0.227 1.587-0.367 2.287l0.034-0.204-24.75 115.667c-0.028 0.028-0.055 0.055-0.082 0.082l-0.001 0.001c-11.344 52.050-63.007 82.75-117.833 82.75h-553zM868.667 614.833c0.802-5.637 2.402-11.122 1.417-8.167-0.31 0.93-1.172 5.386-1.25 5.75-0.003 0.016-0.083 0.251-0.083 0.25s0.001 0.302 0 0.333c-0.004 0.174-0.065 1.017-0.083 1.833zM380.583 616.167c-17.673 0-32-14.327-32-32v0c0-78.985 76.983-135.333 163.417-135.333 43.043 0 82.653 13.53 112.667 37.083s50.75 58.678 50.75 98.25c0 17.673-14.327 32-32 32v0c-17.673 0-32-14.327-32-32v0c0-17.602-8.691-34.137-26.25-47.917s-43.677-23.417-73.167-23.417c-59.486 0-99.417 35.969-99.417 71.333 0 17.673-14.327 32-32 32v0zM380.583 822.25c-17.673 0-32-14.327-32-32v0-206.083c0-17.673 14.327-32 32-32v0c17.673 0 32 14.327 32 32v0 206.083c0 17.673-14.327 32-32 32v0zM643.417 822.25c-17.673 0-32-14.327-32-32v0-206.083c0-17.673 14.327-32 32-32v0c17.673 0 32 14.327 32 32v0 206.083c0 17.673-14.327 32-32 32v0zM424.083 313.167c-17.672-0.002-31.998-14.328-32-32v0-175.333c0.002-17.672 14.328-31.998 32-32h175.334c17.672 0.002 31.998 14.328 32 32v0 175.333c-0.002 17.672-14.328 31.998-32 32h-175.334zM456.083 249.167h111.333v-111.333h-111.333v111.333z" />
<glyph unicode="&#xe941;" glyph-name="shopping-bag-checkmark" d="M291.417 655.333c-61.803 0-113.587-47.685-119.333-109.167 0-0.037 0-0.081 0-0.125s0-0.088 0-0.132v0.007l-34.583-394.5c-6.376-69.552 49.371-130.5 119.333-130.5h510.333c69.786 0 125.079 60.733 119.333 130.25 0 0.012 0 0.027 0 0.042s0 0.029 0 0.044v-0.002l-34.583 394.667c0 0.037 0 0.081 0 0.125s0 0.088 0 0.132v-0.007c-5.764 61.678-57.947 109.167-119.75 109.167h-440.75zM291.417 591.333h440.75c29.504 0 53.231-21.538 56-51.167l34.583-394.5-0.083 0.167c2.788-33.736-22.033-60.917-55.5-60.917h-510.333c-33.291 0-58.594 27.818-55.583 60.667 0 0.012 0 0.027 0 0.042s0 0.029 0 0.044v-0.002l34.583 394.667c2.874 29.719 26.147 51 55.583 51zM511.917 874.667c-114.147 0-207.333-93.188-207.333-207.333v-175.417c0-17.673 14.327-32 32-32v0c17.673 0 32 14.327 32 32v0 175.417c0 79.561 63.77 143.333 143.333 143.333 79.561 0 143.417-63.771 143.417-143.333v-175.417c0-17.673 14.327-32 32-32v0c17.673 0 32 14.327 32 32v0 175.417c0 114.145-93.271 207.333-207.417 207.333zM621.917 421.5c-0.097 0.001-0.212 0.002-0.327 0.002-8.818 0-16.803-3.567-22.591-9.336l-123.666-123.666-50.333 50.667c-5.795 5.814-13.811 9.412-22.667 9.412-8.815 0-16.797-3.564-22.584-9.33l0.001 0.001c-5.814-5.795-9.412-13.811-9.412-22.667 0-8.815 3.564-16.797 9.33-22.584l-0.001 0.001 72.917-73.333c5.799-5.838 13.832-9.452 22.708-9.452 8.835 0 16.834 3.58 22.625 9.369l146.333 146.333c5.789 5.791 9.37 13.79 9.37 22.625s-3.581 16.834-9.37 22.625v0c-5.728 5.709-13.609 9.261-22.32 9.333h-0.014z" />
<glyph unicode="&#xe942;" glyph-name="piggybank" d="M493.583 874.667c-55.468 0-101.083-45.616-101.083-101.083s45.615-101.167 101.083-101.167c55.468 0 101.167 45.699 101.167 101.167s-45.699 101.083-101.167 101.083zM493.583 810.667c20.88 0 37.167-16.203 37.167-37.083s-16.287-37.167-37.167-37.167c-20.879 0-37.083 16.286-37.083 37.167s16.203 37.083 37.083 37.083zM743.167 637.833c-57.096 2.752-113.24-8.792-162.167-41.083-0.194-0.142-0.302-0.224-0.41-0.306l0.077 0.056c-9.882-6.685-12.228-7.097-21.833-5.833-1.2 0.159-2.587 0.25-3.996 0.25-0.060 0-0.12 0-0.18 0h0.009c0.055 0-2.746 0.379-8.167 0.417h-0.417c-62.457 2.545-126.707 4.844-192.25-4.583-0.050 0-0.108 0-0.167 0s-0.117 0-0.176 0h0.009c-41.215-6.411-82.955-18.532-120.583-41.5-35.169-21.492-63.273-50.497-83.667-84 0-0.012 0-0.027 0-0.042s0-0.029 0-0.044v0.002c-24.793-40.836-38.415-87.906-37.917-134.25 0-0.012 0-0.027 0-0.042s0-0.029 0-0.044v0.002c1.002-74.624 39.737-138.075 82.917-190.25 0.112-0.238 0.139-0.292 0.167-0.347l-0.084 0.18c7.45-8.883 13.555-21.381 19.583-36.25-0.011-0.472 0.245-20.204 12.5-45 4.335-9.121 9.325-16.055 11.25-18.75 5.817-8.030 15.124-13.222 25.649-13.333h0.017c37.786-0.429 74.86-0.493 112.167-0.917 0.111-0.001 0.242-0.002 0.373-0.002 13.633 0 25.274 8.524 29.886 20.533l0.074 0.219c2.157 5.753 4.538 11.461 7.083 16.833h90.417c0.033-0.067 0.050-0.183 0.083-0.25 3.652-7.304 7.344-14.207 11.083-20.75 5.604-9.709 15.923-16.144 27.747-16.167h112.253c15.946 0.027 29.155 11.712 31.56 26.986l0.023 0.181c1.397 9.078 4.142 21.094 10.583 35.083 5.329 10.866 11.694 18.871 17.25 25.333 32.955 8.573 62.364 20.364 77.583 33.75l0.083 0.083c16.109 13.988 25.747 28.128 33.917 38.583 8.124 10.397 14.591 17.767 27.083 25.667l0.167 0.083c12.929 7.919 25.488 12.037 33.667 14 14.047 3.471 24.327 15.886 24.5 30.731v0.019c0.427 40.958 0.823 81.538 1.25 122.5 0.001 0.096 0.002 0.209 0.002 0.323 0 14.129-9.156 26.12-21.859 30.362l-0.226 0.065c-42.468 13.773-65.171 31.839-76.667 42.25l-0.083 0.083c-11.855 10.83-28.434 30.171-32.25 34.75-0.056 0.056-0.11 0.111-0.165 0.165l-0.002 0.002c-6.317 7.486-9.993 12.77-14.667 18.917 8.963 22.837 17.689 44.679 23.833 57.583 0-0.033 0.057 0.162 0.112 0.358l0.054 0.225c1.462 3.216 15.673 22.904 2.5 49.25-0.347 0.712-0.625 1.231-0.916 1.74l0.083-0.157c-10.158 17.776-30.565 25.644-48.667 26.333h-0.083zM726.083 572.75c-7.868-17.572-15.905-36.237-26.417-63.917-1.304-3.354-2.059-7.236-2.059-11.295 0-6.988 2.24-13.453 6.041-18.716l-0.065 0.094c6.791-9.507 16.237-22.149 28.417-36.583 4.747-5.697 21.217-25.394 38.333-41 0.028-0.028 0.055-0.055 0.082-0.082l0.001-0.001c12.286-11.134 43.942-28.161 77.583-43.25-0.291-27.873-0.542-55.716-0.833-83.583-9.431-3.567-17.207-4.973-28.083-11.667-0.198-0.128-0.28-0.183-0.361-0.238l0.111 0.071c-20.59-12.935-34.018-28.129-43.75-40.583s-16.076-21.499-25.5-29.667c-0.085-0.084-0.166-0.165-0.247-0.247l-0.003-0.003c-10.461-9.23-28.263-20.909-62.083-26-7.638-1.187-14.243-4.926-19.056-10.303l-0.027-0.031c-8.523-9.525-19.861-23.867-29.25-43.167-0.005 0.011-0.089-0.181-0.171-0.374l-0.079-0.209c-4.682-10.103-5.191-16.744-7.667-25.417h-69.5c-0.283 0.56-0.55 1.016-0.833 1.583-2.987 5.973-5.359 10.905-6.583 14.333-4.55 12.491-16.323 21.25-30.143 21.25-0.008 0-0.017 0-0.025 0h-130.582c-12.049-0.002-22.542-6.663-28-16.503l-0.083-0.164c-2.95-5.409-5.458-10.47-8.167-15.5-0.061-0.107-0.201-0.409-0.336-0.713l-0.081-0.204c-0.804-1.608-1.104-2.766-1.833-4.333-24.094 0.19-48.095 0.387-72 0.583-3.532 9.219-1.529 16.458-9.333 36.75-0.161 0.402-0.245 0.595-0.331 0.786l0.081-0.202c-6.751 16.653-15.097 35.641-29.75 53.167l-0.083 0.167c-38.678 46.771-67.379 97.616-68.083 150.083-0.338 32.97 9.982 69.445 28.667 100.25 15.447 25.377 35.979 46.695 62.25 62.75 28.006 17.095 61.352 27.205 96.833 32.75 58.539 8.401 119.232 6.552 181.75 4 0.308-0.030 0.741-0.059 1.176-0.080l0.074-0.003c-0.058 0 2.552-0.417 8.583-0.417l-4.167 0.333c22.822-3.003 46.868 3.308 66 16.25 32.308 21.248 69.015 29.095 109.583 29.25zM423.667 459.083c-17.673 0-32-14.327-32-32v0c0-17.673 14.327-32 32-32v0h140.333c17.673 0 32 14.327 32 32v0c0 17.673-14.327 32-32 32v0h-140.333zM681.822 369.506c19.319 0 34.982 15.471 34.982 34.56 0 19.085-15.663 34.56-34.982 34.56-19.324 0-34.987-15.475-34.987-34.56 0-19.089 15.663-34.56 34.987-34.56z" />
<glyph unicode="&#xe943;" glyph-name="wallet" d="M117.333 685.667c-17.672-0.002-31.998-14.328-32-32v0-427.5c0-87.725 71.893-159.167 159.167-159.167h534.583c87.725 0 159.167 71.893 159.167 159.167v299.917c0.438 87.752-71.402 159.583-158.75 159.583h-662.167zM149.333 621.667h630.167c52.542 0 95.071-42.445 94.75-95.417 0-0.025 0-0.054 0-0.083s0-0.059 0-0.088v0.005-299.917c0-52.673-42.092-95.167-95.167-95.167h-534.583c-52.673 0-95.167 42.092-95.167 95.167v395.5zM383.167 829c-17.673 0-32-14.327-32-32v0c0-17.673 14.327-32 32-32v0h218.917c53.584 0 99.417-48.314 99.417-111.333 0-17.673 14.327-32 32-32v0c17.673 0 32 14.327 32 32v0c0 94.847-71.934 175.333-163.417 175.333h-218.917zM117.333 740.667c-17.673 0-32-14.327-32-32v0-212.083c0-17.673 14.327-32 32-32v0c17.673 0 32 14.327 32 32v0 212.083c0 17.673-14.327 32-32 32v0zM183 829c-55.090 0-97.667-48.159-97.667-103.667s42.576-103.667 97.667-103.667h306.833c17.673 0 32 14.327 32 32v0c0 17.673-14.327 32-32 32v0h-306.833c-17.443 0-33.667 15.815-33.667 39.667s16.224 39.667 33.667 39.667h306.833c17.673 0 32 14.327 32 32v0c0 17.673-14.327 32-32 32v0h-306.833zM755.593 354.564c12.019 0 21.76 9.741 21.76 21.76 0 12.015-9.741 21.76-21.76 21.76-12.015 0-21.76-9.745-21.76-21.76 0-12.019 9.745-21.76 21.76-21.76zM755.583 430.083c-29.318 0-53.75-24.432-53.75-53.75 0-29.316 24.44-53.75 53.75-53.75s53.75 24.441 53.75 53.75c0 29.31-24.434 53.75-53.75 53.75zM755.583 386.583c5.281 0 10.25-4.972 10.25-10.25 0-5.288-4.962-10.25-10.25-10.25-5.278 0-10.25 4.969-10.25 10.25 0 5.27 4.98 10.25 10.25 10.25z" />
<glyph unicode="&#xe944;" glyph-name="floppy-disk" d="M248.75 873.833c-43.328 0-84.946-17.196-115.583-47.833s-47.833-72.256-47.833-115.583v-525.667c-0.001-43.374 17.182-84.984 47.75-115.75s72.126-48.225 115.5-48.5c0.025 0 0.054 0 0.083 0s0.059 0 0.088 0h526.495c0.012 0 0.027 0 0.042 0s0.029 0 0.044 0h-0.002c43.35 0.138 84.898 17.464 115.5 48.167s47.833 72.317 47.833 115.667v426.667c0.047 21.458-4.14 42.743-12.333 62.583-8.201 19.859-20.217 37.894-35.417 53.083-0.012 0-0.027 0-0.042 0s-0.029 0-0.044 0h0.002l-99.833 99.417c-15.179 15.177-33.161 27.226-53 35.417-19.837 8.188-41.122 12.381-62.583 12.333h-426.667zM248.75 809.833h426.667c0.012 0 0.027 0 0.042 0s0.029 0 0.044 0h-0.002c13.053 0.035 26.014-2.518 38.083-7.5 12.063-4.981 22.942-12.268 32.167-21.5 0.028-0.028 0.055-0.055 0.082-0.082l99.834-99.418c9.208-9.214 16.526-20.122 21.5-32.167 4.98-12.060 7.535-25.029 7.5-38.083 0-0.012 0-0.027 0-0.042s0-0.029 0-0.044v0.002-426.667c0-26.436-10.506-51.777-29.167-70.5-18.642-18.703-43.843-29.228-70.25-29.333h-526.333c-26.488 0.168-51.744 10.789-70.417 29.583s-29.167 44.17-29.167 70.667v525.667c0 26.378 10.431 51.681 29.083 70.333s43.955 29.083 70.333 29.083zM336.667 392.583l0.167-0.083c-15.786 0.076-31.488-2.916-46.083-8.917-14.597-6.007-27.839-14.842-39-26-11.159-11.162-19.994-24.485-26-39.083-6.003-14.598-9.077-30.214-9-46v-218.75c0.002-17.672 14.328-31.998 32-32h526.084c17.672 0.002 31.998 14.328 32 32v0 219.333c0 31.673-12.607 62.107-35 84.5-22.396 22.396-52.827 35-84.5 35h-350.667zM336.5 328.583c0.025 0 0.054 0 0.083 0s0.059 0 0.088 0h350.662c14.723 0 28.835-5.835 39.25-16.25 10.409-10.409 16.25-24.527 16.25-39.25v-187.333h-462.083v186.917c0 0.025 0 0.054 0 0.083s0 0.059 0 0.088v-0.005c-0.036 7.331 1.376 14.546 4.167 21.333 2.789 6.778 6.897 12.979 12.083 18.167 5.185 5.183 11.302 9.209 18.083 12 6.784 2.789 14.087 4.285 21.417 4.25zM248.75 874.25c-17.673 0-32-14.327-32-32v0-188.583c0-28.164 11.168-55.251 31.083-75.167s47.002-31.083 75.167-31.083h290.083c28.165 0 55.254 11.17 75.167 31.083 19.922 19.916 31.083 47.003 31.083 75.167v184.333c0 17.673-14.327 32-32 32v0c-17.673 0-32-14.327-32-32v0-184.333c0-11.216-4.402-21.904-12.333-29.833-7.931-7.932-18.701-12.417-29.917-12.417h-290.083c-11.215 0-21.986 4.486-29.917 12.417s-12.333 18.619-12.333 29.833v188.583c0 17.673-14.327 32-32 32v0zM556 765c-17.673 0-32-14.327-32-32v0-43.917c0-17.673 14.327-32 32-32v0c17.673 0 32 14.327 32 32v0 43.917c0 17.673-14.327 32-32 32v0z" />
<glyph unicode="&#xe945;" glyph-name="lock-close" d="M295.25 524.333c-91.977 0-166.833-75.223-166.833-166.75v-170.25c0-91.855 74.978-166.833 166.833-166.833h433.917c91.977 0 166.833 75.306 166.833 166.833v170.25c0 91.977-75.306 166.75-166.833 166.75h-433.917zM295.25 460.333h433.917c56.953 0 102.833-45.394 102.833-102.75v-170.25c0-56.953-45.477-102.833-102.833-102.833h-433.917c-57.478 0-102.833 45.355-102.833 102.833v170.25c0 56.953 45.477 102.75 102.833 102.75zM512 873.833c-138.525 0-251.75-113.225-251.75-251.75v-130.083c0.002-17.672 14.328-31.998 32-32h439.5c17.672 0.002 31.998 14.328 32 32v0 130.083c0 138.525-113.225 251.75-251.75 251.75zM512 809.833c103.821 0 187.75-83.929 187.75-187.75v-98.083h-375.5v98.083c0 103.821 83.929 187.75 187.75 187.75zM512 326.417c-17.673 0-32-14.327-32-32v0-110.083c0-17.673 14.327-32 32-32v0c17.673 0 32 14.327 32 32v0 110.083c0 17.673-14.327 32-32 32v0zM512.030 272.23c24.273 0 43.947 19.678 43.947 43.947 0 24.273-19.674 43.947-43.947 43.947s-43.947-19.674-43.947-43.947c0-24.269 19.674-43.947 43.947-43.947zM512 392.083c-41.564 0-75.917-34.353-75.917-75.917s34.349-75.917 75.917-75.917 76 34.354 76 75.917c0 41.564-34.436 75.917-76 75.917zM512 328.083c6.982 0 12-4.935 12-11.917 0-6.975-5.022-11.917-12-11.917s-11.917 4.942-11.917 11.917c0 6.982 4.935 11.917 11.917 11.917z" />
<glyph unicode="&#xe946;" glyph-name="users" d="M377.167 787.25c-88.458 0-160.833-72.459-160.833-160.917s72.376-160.833 160.833-160.833c88.458 0 160.833 72.376 160.833 160.833s-72.376 160.917-160.833 160.917zM377.167 723.25c53.87 0 96.833-43.047 96.833-96.917s-42.964-96.833-96.833-96.833c-53.87 0-96.833 42.964-96.833 96.833s42.964 96.917 96.833 96.917zM271.75 400.667c-102.613 0-186.417-83.803-186.417-186.417v-73.417c0-17.673 14.327-32 32-32v0c17.673 0 32 14.327 32 32v0 73.417c0 68.053 54.363 122.417 122.417 122.417h231.25c68.053 0 122.5-54.363 122.5-122.417v-73.417c0-17.673 14.327-32 32-32v0c17.673 0 32 14.327 32 32v0 73.417c0 102.613-83.887 186.417-186.5 186.417h-231.25zM698.917 683.917c-70.077 0-127.583-57.422-127.583-127.5s57.506-127.583 127.583-127.583c70.078 0 127.583 57.506 127.583 127.583s-57.506 127.5-127.583 127.5zM698.917 619.917c35.489 0 63.583-28.011 63.583-63.5 0-35.487-28.095-63.583-63.583-63.583s-63.583 28.096-63.583 63.583c0 35.489 28.095 63.5 63.583 63.5zM726.167 397.25c-17.673 0-32-14.327-32-32v0c0-17.673 14.327-32 32-32v0h65.667c45.849 0 82.417-36.484 82.417-82.333v-54.667c0-17.673 14.327-32 32-32v0c17.673 0 32 14.327 32 32v0 54.667c0 80.444-65.973 146.333-146.417 146.333h-65.667z" />
<glyph unicode="&#xe947;" glyph-name="black-shop-tag" d="M654.616-39.066c-33.419-33.247-87.373-33.247-120.621 0l-469.885 440.701c-26.272 24.642-57.586 71.337-59.843 107.281-6.041 97.241-1.782 283.441 1.175 382.161 1.063 35.98 31.314 66.143 67.318 66.97 126.118 2.932 393.327 6.065 418.165-18.797l517.447-468.144c33.223-33.247 3.084-117.341-30.399-150.76l-323.357-359.413zM242.859 815.041c-28.182 28.118-73.75 28.118-101.955 0-28.118-28.206-28.118-73.75 0-101.867 28.225-28.142 73.794-28.142 101.955 0 28.142 28.118 28.142 73.686 0 101.867z" />
<glyph unicode="&#xe948;" glyph-name="shopping-cart2" d="M387.417 185.167c-44.777 0-81.5-37.2-81.5-81.917 0-44.715 36.72-81.917 81.5-81.917s81.5 37.202 81.5 81.917c0 44.716-36.723 81.917-81.5 81.917zM387.417 121.167c9.892 0 17.5-7.49 17.5-17.917 0-10.419-7.611-17.917-17.5-17.917s-17.5 7.498-17.5 17.917c0 10.426 7.608 17.917 17.5 17.917zM723.167 185.167c-44.777 0-81.5-37.202-81.5-81.917 0-44.714 36.719-81.917 81.5-81.917 44.779 0 81.5 37.2 81.5 81.917s-36.724 81.917-81.5 81.917zM723.167 121.167c9.889 0 17.5-7.493 17.5-17.917 0-10.417-7.615-17.917-17.5-17.917-9.892 0-17.5 7.496-17.5 17.917 0 10.427 7.604 17.917 17.5 17.917zM283.75 731.75c-51.177 0-90.5-48.813-79.5-99l64.833-298.167c0.112-0.238 0.139-0.292 0.167-0.347l-0.084 0.18c8.269-37.209 41.364-64.333 79.417-64.333h438.583c38.206 0 71.917 27.284 79.583 64.917l64.75 297.667c11.135 50.106-27.951 99.083-79.417 99.083h-568.333zM283.75 667.75h568.333c11.681 0 19.435-9.916 16.917-21.25 0-0.012 0-0.027 0-0.042s0-0.029 0-0.044v0.002l-64.833-298.25c0.007 0.069-0.022-0.072-0.050-0.213l-0.034-0.204c-1.721-8.448-8.189-13.667-16.917-13.667h-438.583c-7.985 0-14.903 5.38-16.917 14.167-0.011 0.047-0.073 0.036-0.083 0.083l-64.833 298.083c-2.653 12.106 5.030 21.333 17 21.333zM117.333 874.667c-17.673 0-32-14.327-32-32v0c0-17.673 14.327-32 32-32v0h35.417c8.727 0 15.291-5.499 16.917-13.333 0-0.025 0-0.054 0-0.083s0-0.059 0-0.088v0.005l39.667-185.167c3.201-14.56 15.992-25.295 31.29-25.295 2.377 0 4.693 0.259 6.923 0.751l-0.212-0.039c14.552 3.207 25.278 15.994 25.278 31.286 0 2.348-0.253 4.638-0.733 6.842l0.039-0.211-39.583 185-0.083 0.083c-7.807 37.33-41.334 64.25-79.5 64.25h-35.417zM295.25 334.083c-52.634 0-96-43.366-96-96s43.366-96 96-96h533.75c17.673 0 32 14.327 32 32v0c0 17.673-14.327 32-32 32v0h-533.75c-18.192 0-32 13.808-32 32s13.808 32 32 32h445c17.673 0 32 14.327 32 32v0c0 17.673-14.327 32-32 32v0h-445z" />
<glyph unicode="&#xe949;" glyph-name="logout" d="M250.5 874.667c-89.474 0-165.583-67.267-165.583-153.583v-546.167c0-86.010 75.986-153.583 165.583-153.583h309.333c89.474 0 165.5 67.267 165.5 153.583v53.75c0 17.673-14.327 32-32 32v0c-17.673 0-32-14.327-32-32v0-53.75c0-48.51-43.348-89.583-101.5-89.583h-309.333c-58.029 0-101.583 41.62-101.583 89.583v546.167c0 48.511 43.431 89.583 101.583 89.583h309.333c58.029 0 101.5-41.62 101.5-89.583v-53.75c0-17.673 14.327-32 32-32v0c17.673 0 32 14.327 32 32v0 53.75c0 86.010-75.902 153.583-165.5 153.583h-309.333zM481.333 480c-17.673 0-32-14.327-32-32v0c0-17.673 14.327-32 32-32v0h424.5c17.673 0 32 14.327 32 32v0c0 17.673-14.327 32-32 32v0h-424.5zM767 619.083c-0.048 0-0.105 0-0.162 0-8.859 0-16.877-3.6-22.671-9.416l-0.001-0.001c-5.765-5.786-9.329-13.769-9.329-22.583 0-8.856 3.598-16.872 9.411-22.666l0.001-0.001 140-139.083c5.786-5.765 13.769-9.329 22.583-9.329 8.856 0 16.872 3.598 22.666 9.411l0.001 0.001c5.74 5.782 9.287 13.748 9.287 22.542 0 8.877-3.614 16.91-9.452 22.707l-0.002 0.002-139.917 139.083c-5.747 5.728-13.662 9.285-22.407 9.333h-0.009zM907.167 480c-0.097 0.001-0.212 0.002-0.327 0.002-8.818 0-16.803-3.567-22.591-9.336l0.001 0.001-140-139.083c-5.814-5.795-9.412-13.811-9.412-22.667 0-8.815 3.564-16.797 9.33-22.584l-0.001 0.001c5.795-5.814 13.811-9.412 22.667-9.412 8.815 0 16.797 3.564 22.584 9.33l-0.001-0.001 139.917 139.083c5.839 5.799 9.454 13.831 9.454 22.708 0 8.794-3.547 16.759-9.289 22.544l0.002-0.002c-5.717 5.74-13.598 9.321-22.315 9.417h-0.018z" />
<glyph unicode="&#xe94a;" glyph-name="user2" d="M501.75 778.667c-86.337 0-157-70.663-157-157s70.663-157 157-157c86.337 0 157 70.663 157 157s-70.663 157-157 157zM501.75 714.667c51.749 0 93-41.251 93-93s-41.251-93-93-93c-51.749 0-93 41.252-93 93s41.251 93 93 93zM399.333 402.75c-100.038 0-182.167-81.681-182.167-182.167v-71.25c0-17.673 14.327-32 32-32v0c17.673 0 32 14.327 32 32v0 71.25c0 65.914 52.658 118.167 118.167 118.167h224.833c65.915 0 118.25-52.658 118.25-118.167v-71.25c0-17.673 14.327-32 32-32v0c17.673 0 32 14.327 32 32v0 71.25c0 100.038-81.765 182.167-182.25 182.167h-224.833z" />
<glyph unicode="&#xe94b;" glyph-name="minus" d="M80 448c0 26.51 21.49 48 48 48h768c26.51 0 48-21.49 48-48s-21.49-48-48-48h-768c-26.51 0-48 21.49-48 48z" />
<glyph unicode="&#xe94c;" glyph-name="project" d="M897.83 723.482h-324.099c-13.156 0-26.006 5.402-34.88 14.584l-101.126 106.528c-24.308 24.23-57.566 36.886-91.25 36.692h-220.308c-69.566 0.002-126.168-56.6-126.168-126.164v-614.245c0-69.566 56.602-126.168 126.168-126.168h772.242c69.528 0.308 125.898 57.18 125.588 126.554v456.053c0 69.566-56.602 126.166-126.168 126.166zM946.832 141.108c0.116-27.008-21.76-49.116-48.614-49.232h-772.050c-27.008 0-49 21.992-49 49v614.247c0 27.008 21.992 49 49 49.040h221.312c0.424 0 0.848 0 1.274 0 12.886 0 25.388-5.132 33.798-13.466l100.586-106.026c23.612-24.384 56.64-38.352 90.594-38.352h324.099c27.008 0 49-21.992 49-49v-456.211zM404.704 567.805c-36.833 0-73.791-14.091-101.805-42.109-54.832-54.832-54.886-142.687-1.315-202.237 46.953-52.176 175.776-156.455 181.533-161.129v0.015c6.63-5.39 14.761-8.081 22.763-8.136 8.815-0.387 17.37 2.643 24.121 8.136v-0.015c5.753 4.671 134.597 108.949 181.562 161.129 0 0.002 0 0.005 0 0.007s0 0.005 0 0.008v0c53.565 59.545 53.494 147.392-1.33 202.223-56.042 56.027-147.595 56.029-203.624 0l-0.043-0.057-0.072 0.057c-28.013 28.012-64.961 42.109-101.791 42.109zM608.414 494.926c18.156-0.001 36.315-6.946 50.202-20.833 27.128-27.128 27.304-69.996-1.301-101.805-29.876-33.19-112.24-102.579-150.763-134.506-38.514 31.917-120.85 101.296-150.72 134.491-28.628 31.819-28.447 74.688-1.315 101.819 13.896 13.89 31.969 20.747 50.188 20.747 18.221 0 36.311-6.856 50.202-20.747l25.408-25.423c5.447-5.447 12.34-8.644 19.289-9.852 11.582-2.371 24.219 0.893 33.172 9.823 0.002 0.002 0.006 0.006 0.011 0.011l25.426 25.44c13.897 13.892 32.046 20.834 50.202 20.833zM505.951 154.194c13.285-0.252-32.856 0.815 0 0z" />
<glyph unicode="&#xe94d;" glyph-name="settings" d="M512 618.667c-93.752 0-170.667-76.915-170.667-170.667s76.915-170.667 170.667-170.667c93.749 0 170.667 76.913 170.667 170.667s-76.918 170.667-170.667 170.667zM512 533.333c47.631 0 85.333-37.698 85.333-85.333s-37.702-85.333-85.333-85.333c-47.637 0-85.333 37.697-85.333 85.333s37.696 85.333 85.333 85.333zM507.583 917.333c-26.519 0.004-52.515-7.716-74.75-22.167-22.233-14.453-39.737-35.017-50.5-59.25l-25-56.083c0-0.012 0-0.027 0-0.042s0-0.029 0-0.044v0.002c-5.178-11.716-13.939-21.461-25-27.917-11.159-6.437-24.021-9.161-36.833-7.833l-61.25 6.417c0 0.012 0 0.027 0 0.042s0 0.029 0 0.044v-0.002c-26.369 2.79-52.956-2.133-76.583-14.167-23.609-12.024-43.25-30.723-56.5-53.667-13.27-22.957-19.643-49.27-18.25-75.75s10.478-51.979 26.083-73.417l36.083-49.667c7.554-10.42 11.669-22.969 11.667-35.833 0.002-12.891-4.087-25.411-11.667-35.833l-36.083-49.667c-15.607-21.438-24.691-46.937-26.083-73.417s4.978-52.792 18.25-75.75c13.259-22.949 32.88-41.556 56.5-53.583 23.613-12.024 50.219-17.025 76.583-14.25 0 0.013 0 0.028 0 0.043s0 0.030 0 0.045v-0.002l61 6.415c12.841 1.348 25.731-1.383 36.917-7.833 11.152-6.437 19.943-16.232 25.167-28l25-56.083c10.762-24.228 28.264-44.796 50.5-59.25 22.232-14.447 48.226-22.173 74.75-22.167 26.527-0.006 52.436 7.716 74.667 22.167 22.243 14.455 39.82 35.024 50.583 59.25l24.917 56v0.085c5.209 11.643 13.977 21.339 25 27.75 11.161 6.439 24.106 9.246 36.917 7.917l61-6.5c26.365-2.787 53.036 2.128 76.667 14.167 23.632 12.033 43.25 30.62 56.5 53.583 13.27 22.959 19.561 49.272 18.167 75.75-1.394 26.476-10.391 51.976-26 73.417l-36.083 49.5v0.085l-0.085 0.085c-7.5 10.448-11.482 22.973-11.417 35.833 0 0.013 0 0.028 0 0.043s0 0.030 0 0.045v-0.002c0 0.013 0 0.028 0 0.043s0 0.030 0 0.045v-0.002c0 0.013 0 0.028 0 0.043s0 0.030 0 0.045v-0.002c-0.003 12.891 4.082 25.483 11.667 35.917l36.085 49.571c15.597 21.433 24.606 46.934 26 73.417s-4.897 52.796-18.167 75.75c-13.248 22.964-32.866 41.632-56.5 53.667-23.627 12.034-50.216 16.956-76.583 14.167-0.038-0.036-0.065-0.064-0.093-0.091l0.008 0.008-60.915-6.417c-12.841-1.349-25.741 1.386-36.917 7.833-11.063 6.457-19.826 16.207-25 27.917-0.14 0.293-0.169 0.347-0.197 0.402l0.112-0.235-25.083 56c-10.761 24.231-28.342 44.796-50.581 59.25-22.234 14.454-48.145 22.171-74.667 22.167zM507.583 832c10.018 0.002 19.775-2.878 28.167-8.333 8.396-5.456 15.016-13.26 19.083-22.417 0.020-0.020 0.048-0.047 0.076-0.074l0.010-0.009 25.167-56.083c12.486-28.132 33.555-51.623 60.167-67.083 0.020-0.020 0.048-0.047 0.076-0.074l0.010-0.009c26.772-15.445 57.762-22.061 88.5-18.833 0.013 0 0.028 0 0.043 0s0.030 0 0.045 0h-0.002l60.917 6.5c9.95 1.053 19.998-0.791 28.917-5.333 8.921-4.543 16.329-11.575 21.333-20.25 0.013 0 0.028 0 0.043 0s0.030 0 0.045 0h-0.002c5.009-8.665 7.359-18.597 6.833-28.583-0.526-9.989-3.943-19.655-9.833-27.75l-36.167-49.583c-18.162-24.984-27.905-55.109-27.917-86-0.124-30.949 9.541-61.163 27.667-86.25 0.14-0.292 0.169-0.346 0.197-0.401l-0.112 0.234 36.167-49.583c5.886-8.085 9.307-17.754 9.833-27.75 0.526-9.994-1.908-19.917-6.917-28.583-5.003-8.67-12.42-15.711-21.333-20.25-8.915-4.542-18.955-6.386-28.917-5.333l-61 6.5c-30.742 3.232-61.729-3.389-88.5-18.833-0.013 0-0.028 0-0.043 0s-0.030 0-0.045 0h0.002c-26.626-15.416-47.715-38.822-60.25-66.917 0-0.013 0-0.028 0-0.043s0-0.030 0-0.045v0.002l-25-56.083c-4.068-9.156-10.691-16.963-19.083-22.417-8.395-5.457-18.154-8.336-28.167-8.333-10.007-0.002-19.847 2.873-28.25 8.333-8.39 5.454-15.017 13.262-19.083 22.417l-24.925 56.085c-12.545 28.262-33.719 51.791-60.5 67.25-26.769 15.437-57.764 22.059-88.5 18.833-0.012 0-0.027 0-0.042 0s-0.029 0-0.044 0h0.002l-60.917-6.5c-9.957-1.048-20.070 0.786-29 5.333-8.924 4.544-16.321 11.574-21.333 20.25-5.005 8.658-7.359 18.592-6.833 28.583s3.946 19.58 9.833 27.667c0 0.013 0 0.028 0 0.043s0 0.030 0 0.045v-0.002l36.083 49.583c18.186 25.006 28.005 55.163 28 86.081 0.005 30.919-9.819 61.077-28 86.083l-36.083 49.667c-5.889 8.090-9.308 17.675-9.833 27.667s1.826 19.921 6.833 28.583c5.002 8.671 12.412 15.706 21.333 20.25s18.962 6.386 28.917 5.333l61.25-6.5c30.737-3.228 61.728 3.391 88.5 18.833 0.028 0.028 0.055 0.055 0.082 0.082l0.001 0.001c26.647 15.482 47.769 38.992 60.25 67.167l0.085 0.083 24.833 56c4.065 9.156 10.688 16.96 19.081 22.417 8.4 5.459 18.238 8.335 28.25 8.333z" />
<glyph unicode="&#xe94e;" glyph-name="project-fill-folder" d="M126.168 881.285c-69.566 0.002-126.168-56.6-126.168-126.164v-614.245c0-69.566 56.602-126.168 126.168-126.168h772.241c69.528 0.308 125.9 57.181 125.59 126.554v456.054c0 69.566-56.602 126.164-126.168 126.164h-324.101c-13.156 0-26.005 5.404-34.879 14.586l-101.125 106.527c-24.308 24.23-57.566 36.885-91.25 36.691zM404.702 569.536c36.742 0 73.539-14.015 101.734-41.566l-1.059-1.043c0.365 0.365 0.804 0.597 1.172 0.957 0.367-0.36 0.812-0.593 1.176-0.957l-1.059 1.043c56.793 55.502 148.474 55.248 204.781-1.043l0.016-0.016c55.467-55.475 55.506-144.436 1.387-204.597v-0.012c-47.263-52.511-175.947-156.589-181.75-161.3l-0.012-0.016c-7.048-5.728-16.013-8.904-25.254-8.508-8.372 0.064-16.872 2.888-23.805 8.523v-0.016c-5.782 4.695-134.478 108.804-181.734 161.316-54.122 60.163-54.097 149.132 1.371 204.609 28.346 28.349 65.763 42.625 103.035 42.625zM479.085 447.442v0.012c-45.066 51.167 0.441-0.373 0-0.012zM505.952 152.463h1.457c-0.064-0.004-0.525-0.027-1.285-0.027-0.058 0-0.114 0.027-0.172 0.027z" />
<glyph unicode="&#xe94f;" glyph-name="draggable-dots" d="M362.667 234.667c-46.933 0-85.333-38.4-85.333-85.333s38.4-85.333 85.333-85.333 85.333 38.4 85.333 85.333-38.4 85.333-85.333 85.333zM661.333 661.333c46.933 0 85.333 38.4 85.333 85.333s-38.4 85.333-85.333 85.333-85.333-38.4-85.333-85.333 38.4-85.333 85.333-85.333zM362.667 533.333c-46.933 0-85.333-38.4-85.333-85.333s38.4-85.333 85.333-85.333 85.333 38.4 85.333 85.333-38.4 85.333-85.333 85.333zM661.333 533.333c-46.933 0-85.333-38.4-85.333-85.333s38.4-85.333 85.333-85.333 85.333 38.4 85.333 85.333-38.4 85.333-85.333 85.333zM661.333 234.667c-46.933 0-85.333-38.4-85.333-85.333s38.4-85.333 85.333-85.333 85.333 38.4 85.333 85.333-38.4 85.333-85.333 85.333zM362.667 832c-46.933 0-85.333-38.4-85.333-85.333s38.4-85.333 85.333-85.333 85.333 38.4 85.333 85.333-38.4 85.333-85.333 85.333z" />
<glyph unicode="&#xe950;" glyph-name="share_arrow" d="M64 32c-1.49-0.22-3.21-0.345-4.96-0.345s-3.47 0.125-5.152 0.368l0.192-0.023c-12.946 4.296-22.118 16.295-22.118 30.436 0 0.55 0.014 1.097 0.041 1.64l-0.003-0.076v32c0.027 301.872 220.048 552.347 508.473 599.841l3.527 0.479v135.68c0 17.673 14.327 32 32 32 7.24 0 13.919-2.404 19.28-6.458l-0.080 0.058 384-288c7.807-5.9 12.8-15.167 12.8-25.6s-4.993-19.7-12.72-25.542l-0.080-0.058-384-288c-5.281-3.996-11.96-6.4-19.2-6.4-17.673 0-32 14.327-32 32v0 120c-159.558-26.713-295.075-113.471-385.080-235.788l-1.16-1.652-67.84-93.44c-5.888-7.992-15.264-13.12-25.837-13.12-0.029 0-0.058 0-0.088 0h0.005zM608 768v-99.84c0-0.058 0.001-0.126 0.001-0.194 0-16.433-12.387-29.973-28.333-31.792l-0.147-0.014c-248.78-27.928-445.311-220.095-479.668-464.323l-0.332-2.877 5.12 6.72c108.805 148.172 275.062 248.665 465.302 268.558l2.858 0.242c0.889 0.088 1.922 0.138 2.966 0.138 8.372 0 15.993-3.215 21.696-8.478l-0.022 0.020c6.478-5.863 10.537-14.295 10.56-23.676v-92.484l298.56 224z" />
<glyph unicode="&#xe951;" glyph-name="share_alt" d="M234.667 320c38.926 0.228 74.296 15.272 100.793 39.771l-0.1-0.091 267.093-152.747c-3.25-10.844-5.12-23.306-5.12-36.204 0-0.022 0-0.044 0-0.066v0.003c-0.003-0.354-0.005-0.773-0.005-1.192 0-83.181 67.432-150.613 150.613-150.613s150.613 67.432 150.613 150.613c0 83.181-67.432 150.613-150.613 150.613-39.383 0-75.236-15.116-102.073-39.862l0.104 0.095-267.093 152.747c3.073 9.664 4.931 20.794 5.119 32.33l0.001 0.097 262.4 150.187c26.3-23.837 61.365-38.428 99.838-38.428 82.239 0 148.907 66.668 148.907 148.907s-66.668 148.907-148.907 148.907c-82.239 0-148.907-66.668-148.907-148.907 0-0.29 0.001-0.58 0.002-0.87v0.045c0.157-12.966 2.016-25.432 5.363-37.274l-0.243 1.007-242.773-138.667c-27.014 41.334-73.068 68.266-125.414 68.266-82.475 0-149.333-66.859-149.333-149.333s66.859-149.333 149.333-149.333c0.141 0 0.281 0 0.422 0.001h-0.022zM746.667 234.667c35.346 0 64-28.654 64-64s-28.654-64-64-64c-35.346 0-64 28.654-64 64v0c0 35.346 28.654 64 64 64v0zM746.667 789.333c35.346 0 64-28.654 64-64s-28.654-64-64-64c-35.346 0-64 28.654-64 64v0c0 35.346 28.654 64 64 64v0zM234.667 533.333c35.346 0 64-28.654 64-64s-28.654-64-64-64c-35.346 0-64 28.654-64 64v0c0 35.346 28.654 64 64 64v0z" />
<glyph unicode="&#xe952;" glyph-name="map-pin" d="M938.667 533.333c0 117.803-47.787 224.555-124.971 301.696s-183.893 124.971-301.696 124.971-224.555-47.787-301.696-124.971-124.971-183.893-124.971-301.696c0-24.277 2.261-48.128 6.4-71.509 11.691-66.048 38.357-128.171 71.765-184.32 116.565-195.883 324.821-334.336 324.821-334.336 14.123-9.259 32.64-9.771 47.317 0 0 0 208.299 138.453 324.821 334.336 33.408 56.149 60.075 118.272 71.765 184.32 4.181 23.381 6.443 47.232 6.443 71.509zM853.333 533.333c0-18.944-1.749-37.845-5.077-56.661-9.429-53.333-31.445-105.728-61.099-155.563-81.579-137.131-214.869-245.205-271.744-287.573-59.648 39.083-195.755 148.352-278.613 287.573-29.653 49.835-51.669 102.229-61.099 155.563-3.285 18.816-5.035 37.717-5.035 56.661 0 94.251 38.144 179.541 99.968 241.365s147.115 99.968 241.365 99.968 179.541-38.144 241.365-99.968 99.968-147.115 99.968-241.365zM682.667 533.333c0 47.104-19.157 89.856-50.005 120.661s-73.557 50.005-120.661 50.005-89.856-19.157-120.661-50.005-50.005-73.557-50.005-120.661 19.157-89.856 50.005-120.661 73.557-50.005 120.661-50.005 89.856 19.157 120.661 50.005 50.005 73.557 50.005 120.661zM597.333 533.333c0-23.595-9.515-44.843-25.003-60.331s-36.736-25.003-60.331-25.003-44.843 9.515-60.331 25.003-25.003 36.736-25.003 60.331 9.515 44.843 25.003 60.331 36.736 25.003 60.331 25.003 44.843-9.515 60.331-25.003 25.003-36.736 25.003-60.331z" />
<glyph unicode="&#xe953;" glyph-name="clear_field" d="M225.835 673.835l225.835-225.835-225.835-225.835c-16.683-16.683-16.683-43.691 0-60.331s43.691-16.683 60.331 0l225.835 225.835 225.835-225.835c16.683-16.683 43.691-16.683 60.331 0s16.683 43.691 0 60.331l-225.835 225.835 225.835 225.835c16.683 16.683 16.683 43.691 0 60.331s-43.691 16.683-60.331 0l-225.835-225.835-225.835 225.835c-16.683 16.683-43.691 16.683-60.331 0s-16.683-43.691 0-60.331z" />
<glyph unicode="&#xe954;" glyph-name="social-youtube" d="M984.088 746.462c-36.964 43.94-105.208 61.862-235.54 61.862h-473.106c-133.314 0-202.716-19.080-239.54-65.86-35.902-45.608-35.902-112.812-35.902-205.826v-177.28c0-180.194 42.598-271.684 275.442-271.684h473.108c113.024 0 175.652 15.816 216.17 54.592 41.552 39.764 59.28 104.69 59.28 217.092v177.28c0 98.090-2.778 165.69-39.912 209.824zM657.412 423.524l-214.836-112.28c-4.802-2.51-10.056-3.756-15.3-3.756-5.94 0-11.866 1.598-17.114 4.776-9.884 5.988-15.918 16.702-15.918 28.256v223.84c0 11.534 6.018 22.238 15.882 28.23 9.866 5.992 22.138 6.402 32.374 1.084l214.836-111.556c10.93-5.674 17.794-16.958 17.81-29.27 0.014-12.324-6.82-23.624-17.734-29.324z" />
</font>
</defs>
</svg>
